<svg width="180" height="180" viewBox="0 0 180 180" fill="none" xmlns="http://www.w3.org/2000/svg">
<g clip-path="url(#clip0_2679_4039)">
<mask id="mask0_2679_4039" style="mask-type:luminance" maskUnits="userSpaceOnUse" x="5" y="108" width="3" height="7">
<path d="M5.85699 109.973C6.44833 111.576 6.95672 113.648 6.99685 114.514C7.10656 115.227 6.95672 115.024 6.64366 114.172C6.13884 112.569 5.68307 110.953 5.27636 109.322C5.25228 109.177 5.2175 109.039 5.18539 108.894C5.01147 107.887 5.31917 108.344 5.85699 109.973Z" fill="white"/>
</mask>
<g mask="url(#mask0_2679_4039)">
<path d="M7.10653 107.887H5.01144V115.237H7.10653V107.887Z" fill="url(#paint0_linear_2679_4039)"/>
</g>
<mask id="mask1_2679_4039" style="mask-type:luminance" maskUnits="userSpaceOnUse" x="10" y="123" width="2" height="4">
<path d="M10.3604 123.851C10.7591 124.709 11.1631 125.561 11.5217 126.338V126.359C11.04 125.377 10.578 124.389 10.1357 123.397C10.2196 123.544 10.2947 123.696 10.3604 123.851Z" fill="white"/>
</mask>
<g mask="url(#mask1_2679_4039)">
<path d="M11.5217 123.397H10.1357V126.359H11.5217V123.397Z" fill="url(#paint1_linear_2679_4039)"/>
</g>
<mask id="mask2_2679_4039" style="mask-type:luminance" maskUnits="userSpaceOnUse" x="10" y="50" width="2" height="4">
<path d="M11.5217 50.6523V50.6657C11.1605 51.4456 10.7591 52.2949 10.3604 53.1469C10.2958 53.3057 10.2207 53.46 10.1357 53.6089C10.5798 52.6127 11.0293 51.6299 11.5217 50.6523Z" fill="white"/>
</mask>
<g mask="url(#mask2_2679_4039)">
<path d="M11.5217 50.6523H10.1357V53.6089H11.5217V50.6523Z" fill="url(#paint2_linear_2679_4039)"/>
</g>
<mask id="mask3_2679_4039" style="mask-type:luminance" maskUnits="userSpaceOnUse" x="5" y="62" width="3" height="7">
<path d="M6.99662 62.485C6.95648 63.361 6.46147 65.4229 5.85676 67.0253C5.32162 68.6465 5.01123 69.1032 5.18515 68.0937C5.21726 67.9494 5.25205 67.8106 5.27613 67.6717C5.68284 66.0443 6.1386 64.4293 6.64342 62.8269C6.95648 61.9695 7.10632 61.7719 6.99662 62.485Z" fill="white"/>
</mask>
<g mask="url(#mask3_2679_4039)">
<path d="M7.10653 61.7715H5.01144V69.1135H7.10653V61.7715Z" fill="url(#paint3_linear_2679_4039)"/>
</g>
<mask id="mask4_2679_4039" style="mask-type:luminance" maskUnits="userSpaceOnUse" x="3" y="77" width="2" height="8">
<path d="M4.13451 77.7808C4.27731 79.4826 4.14358 81.1962 3.7385 82.8553C3.40671 84.2788 3.07224 84.4311 3 83.1518C3.03069 81.5243 3.16744 79.9006 3.40939 78.2909C3.69836 76.8701 4.02213 76.5656 4.13451 77.7808Z" fill="white"/>
</mask>
<g mask="url(#mask4_2679_4039)">
<path d="M4.30575 76.5659H3V84.4367H4.30575V76.5659Z" fill="url(#paint4_linear_2679_4039)"/>
</g>
<mask id="mask5_2679_4039" style="mask-type:luminance" maskUnits="userSpaceOnUse" x="3" y="92" width="2" height="8">
<path d="M3.7385 94.1437C4.14424 95.8028 4.27797 97.5165 4.13451 99.2182C4.02213 100.441 3.69836 100.142 3.40939 98.7108C3.16788 97.1019 3.03113 95.4791 3 93.8526C3.07224 92.56 3.40671 92.7175 3.7385 94.1437Z" fill="white"/>
</mask>
<g mask="url(#mask5_2679_4039)">
<path d="M4.30575 92.5625H3V100.441H4.30575V92.5625Z" fill="url(#paint5_linear_2679_4039)"/>
</g>
<mask id="mask6_2679_4039" style="mask-type:luminance" maskUnits="userSpaceOnUse" x="9" y="111" width="5" height="8">
<path d="M11.8316 112.976C12.9019 114.734 13.3434 117.127 12.8457 118.275C12.4015 119.344 11.2858 118.809 10.3332 117.121C9.38065 115.434 8.94986 113.201 9.26292 112.06C9.65625 110.84 10.7934 111.19 11.8316 112.976Z" fill="white"/>
</mask>
<g mask="url(#mask6_2679_4039)">
<path d="M13.3429 110.84H8.94666V119.338H13.3429V110.84Z" fill="url(#paint6_linear_2679_4039)"/>
</g>
<mask id="mask7_2679_4039" style="mask-type:luminance" maskUnits="userSpaceOnUse" x="13" y="127" width="5" height="7">
<path d="M15.77 128.971C16.9205 130.608 17.643 132.601 17.4048 133.346C17.2015 133.979 16.2115 133.194 15.1224 131.57C14.0334 129.946 13.3137 128.098 13.4073 127.387C13.5411 126.557 14.6408 127.31 15.77 128.971Z" fill="white"/>
</mask>
<g mask="url(#mask7_2679_4039)">
<path d="M17.6484 126.556H13.3137V133.978H17.6484V126.556Z" fill="url(#paint7_linear_2679_4039)"/>
</g>
<mask id="mask8_2679_4039" style="mask-type:luminance" maskUnits="userSpaceOnUse" x="19" y="139" width="5" height="6">
<path d="M21.6062 141.568C22.8718 143.067 23.7896 144.418 23.7896 144.645C23.8244 144.731 23.6986 144.611 23.4712 144.354C22.1743 142.851 20.9391 141.314 19.7653 139.742C19.669 139.603 19.5727 139.456 19.5298 139.384C19.4629 139.122 20.378 140.038 21.6062 141.568Z" fill="white"/>
</mask>
<g mask="url(#mask8_2679_4039)">
<path d="M23.8239 139.123H19.4624V144.731H23.8239V139.123Z" fill="url(#paint8_linear_2679_4039)"/>
</g>
<mask id="mask9_2679_4039" style="mask-type:luminance" maskUnits="userSpaceOnUse" x="19" y="32" width="5" height="6">
<path d="M23.7895 32.3498C23.7895 32.5795 22.8717 33.9256 21.6061 35.4319C20.3405 36.9382 19.4655 37.8784 19.5297 37.6086C19.6019 37.4853 19.6805 37.3658 19.7652 37.2507C20.9371 35.6803 22.1715 34.1437 23.4684 32.6409C23.6985 32.3899 23.8242 32.2697 23.7895 32.3498Z" fill="white"/>
</mask>
<g mask="url(#mask9_2679_4039)">
<path d="M23.8239 32.27H19.4624V37.8787H23.8239V32.27Z" fill="url(#paint9_linear_2679_4039)"/>
</g>
<mask id="mask10_2679_4039" style="mask-type:luminance" maskUnits="userSpaceOnUse" x="13" y="43" width="5" height="7">
<path d="M17.4079 43.661C17.6514 44.4062 16.9236 46.3932 15.773 48.0358C14.6225 49.6783 13.5442 50.4395 13.4104 49.6169C13.3167 48.8984 14.074 47.0903 15.1255 45.4344C16.1771 43.7785 17.2046 43.0334 17.4079 43.661Z" fill="white"/>
</mask>
<g mask="url(#mask10_2679_4039)">
<path d="M17.6515 43.0337H13.3169V50.4425H17.6515V43.0337Z" fill="url(#paint10_linear_2679_4039)"/>
</g>
<mask id="mask11_2679_4039" style="mask-type:luminance" maskUnits="userSpaceOnUse" x="9" y="58" width="5" height="8">
<path d="M12.8424 58.7312C13.3454 59.8797 12.8959 62.2727 11.8283 64.0221C10.7981 65.8169 9.65561 66.1587 9.27031 64.9462C8.94654 63.8031 9.41747 61.5943 10.3406 59.8717C11.2637 58.149 12.3982 57.6763 12.8424 58.7312Z" fill="white"/>
</mask>
<g mask="url(#mask11_2679_4039)">
<path d="M13.3453 57.6743H8.94638V66.1648H13.3453V57.6743Z" fill="url(#paint11_linear_2679_4039)"/>
</g>
<mask id="mask12_2679_4039" style="mask-type:luminance" maskUnits="userSpaceOnUse" x="6" y="75" width="5" height="9">
<path d="M10.3232 76.2653C11.0296 77.7957 10.8851 80.3677 9.96999 82.0957C9.12446 83.6982 7.93376 83.7863 7.31835 82.2826C6.76983 80.8431 6.93572 78.3886 7.68225 76.7514C8.49299 75.0768 9.66496 74.8659 10.3232 76.2653Z" fill="white"/>
</mask>
<g mask="url(#mask12_2679_4039)">
<path d="M11.0303 74.8633H6.77054V83.7811H11.0303V74.8633Z" fill="url(#paint12_linear_2679_4039)"/>
</g>
<mask id="mask13_2679_4039" style="mask-type:luminance" maskUnits="userSpaceOnUse" x="6" y="93" width="5" height="9">
<path d="M9.96999 94.9131C10.8851 96.6277 11.0403 99.2077 10.3232 100.738C9.66496 102.138 8.49299 101.927 7.68225 100.244C6.93572 98.6148 6.76983 96.1604 7.31835 94.7155C7.93376 93.2172 9.12446 93.3106 9.96999 94.9131Z" fill="white"/>
</mask>
<g mask="url(#mask13_2679_4039)">
<path d="M11.0303 93.2192H6.77054V102.14H11.0303V93.2192Z" fill="url(#paint13_linear_2679_4039)"/>
</g>
<mask id="mask14_2679_4039" style="mask-type:luminance" maskUnits="userSpaceOnUse" x="18" y="113" width="7" height="10">
<path d="M23.2989 115.526C24.7839 117.396 25.1371 120.04 24.1418 121.424C23.1946 122.738 21.3135 122.276 19.9195 120.441C18.5816 118.633 18.1749 116.101 19.0231 114.728C19.9543 113.368 21.8621 113.66 23.2989 115.526Z" fill="white"/>
</mask>
<g mask="url(#mask14_2679_4039)">
<path d="M25.1376 113.369H18.1754V122.738H25.1376V113.369Z" fill="url(#paint14_linear_2679_4039)"/>
</g>
<mask id="mask15_2679_4039" style="mask-type:luminance" maskUnits="userSpaceOnUse" x="22" y="131" width="7" height="8">
<path d="M26.5059 133.293C28.0338 135.016 28.6465 137.264 27.8625 138.21C27.0972 139.04 25.3741 138.381 23.9426 136.736C22.5111 135.09 21.8876 132.978 22.5004 132C23.196 130.977 25.0048 131.538 26.5059 133.293Z" fill="white"/>
</mask>
<g mask="url(#mask15_2679_4039)">
<path d="M28.6491 130.978H21.8875V139.041H28.6491V130.978Z" fill="url(#paint15_linear_2679_4039)"/>
</g>
<mask id="mask16_2679_4039" style="mask-type:luminance" maskUnits="userSpaceOnUse" x="27" y="145" width="7" height="7">
<path d="M31.2805 147.492C32.8217 148.977 33.603 150.574 33.0813 151.036C32.5461 151.364 31.0477 150.526 29.5788 149.121C28.1098 147.716 27.2669 146.183 27.6469 145.724C28.0991 145.184 29.7554 145.988 31.2805 147.492Z" fill="white"/>
</mask>
<g mask="url(#mask16_2679_4039)">
<path d="M33.6069 145.184H27.2681V151.367H33.6069V145.184Z" fill="url(#paint16_linear_2679_4039)"/>
</g>
<mask id="mask17_2679_4039" style="mask-type:luminance" maskUnits="userSpaceOnUse" x="34" y="154" width="6" height="5">
<path d="M37.4047 156.968C38.9084 158.095 39.869 158.961 39.5452 158.822C39.5452 158.822 39.473 158.768 39.473 158.776C37.7249 157.557 36.016 156.268 34.3463 154.909C34.2125 154.797 34.1537 154.738 34.2259 154.783C34.4319 154.797 35.8581 155.748 37.4047 156.968Z" fill="white"/>
</mask>
<g mask="url(#mask17_2679_4039)">
<path d="M39.8686 154.739H34.1479V158.962H39.8686V154.739Z" fill="url(#paint17_linear_2679_4039)"/>
</g>
<mask id="mask18_2679_4039" style="mask-type:luminance" maskUnits="userSpaceOnUse" x="34" y="18" width="6" height="5">
<path d="M39.5492 18.1831C39.8702 18.0442 38.9097 18.9096 37.4086 20.0366C35.862 21.2572 34.4359 22.208 34.2245 22.2267C34.1522 22.2668 34.2111 22.2 34.3449 22.0958C36.0145 20.7391 37.7243 19.4437 39.4716 18.2312L39.5492 18.1831Z" fill="white"/>
</mask>
<g mask="url(#mask18_2679_4039)">
<path d="M39.8698 18.0415H34.1491V22.264H39.8698V18.0415Z" fill="url(#paint18_linear_2679_4039)"/>
</g>
<mask id="mask19_2679_4039" style="mask-type:luminance" maskUnits="userSpaceOnUse" x="27" y="25" width="7" height="7">
<path d="M33.0813 25.9673C33.6031 26.4293 32.8137 28.0265 31.2806 29.5114C29.7474 30.9964 28.0991 31.819 27.6469 31.2795C27.267 30.8041 28.1419 29.3058 29.5788 27.8822C31.0157 26.4587 32.5595 25.6415 33.0813 25.9673Z" fill="white"/>
</mask>
<g mask="url(#mask19_2679_4039)">
<path d="M33.6069 25.6411H27.2681V31.824H33.6069V25.6411Z" fill="url(#paint19_linear_2679_4039)"/>
</g>
<mask id="mask20_2679_4039" style="mask-type:luminance" maskUnits="userSpaceOnUse" x="22" y="38" width="7" height="8">
<path d="M27.8654 38.7906C28.652 39.7334 28.0366 41.9956 26.5088 43.7075C24.981 45.4195 23.1989 46.0151 22.4952 45.0002C21.8825 44.0227 22.5327 41.9315 23.9374 40.2622C25.3422 38.593 27.1001 37.968 27.8654 38.7906Z" fill="white"/>
</mask>
<g mask="url(#mask20_2679_4039)">
<path d="M28.6502 37.9673H21.8887V46.0224H28.6502V37.9673Z" fill="url(#paint20_linear_2679_4039)"/>
</g>
<mask id="mask21_2679_4039" style="mask-type:luminance" maskUnits="userSpaceOnUse" x="18" y="54" width="7" height="10">
<path d="M24.1363 55.5817C25.1316 56.9652 24.7784 59.5879 23.2934 61.4789C21.8565 63.3484 19.9488 63.6369 19.0123 62.2801C18.164 60.9073 18.5708 58.3727 19.9086 56.5646C21.3134 54.7298 23.1944 54.2784 24.1363 55.5817Z" fill="white"/>
</mask>
<g mask="url(#mask21_2679_4039)">
<path d="M25.1378 54.2666H18.1756V63.6331H25.1378V54.2666Z" fill="url(#paint21_linear_2679_4039)"/>
</g>
<mask id="mask22_2679_4039" style="mask-type:luminance" maskUnits="userSpaceOnUse" x="16" y="73" width="7" height="10">
<path d="M22.0823 75.0206C23.2811 76.6845 23.1526 79.601 21.7934 81.4305C20.4849 83.212 18.521 83.2707 17.4105 81.6148C16.3563 79.9963 16.4981 77.224 17.7182 75.3758C18.9839 73.5971 20.9291 73.3781 22.0823 75.0206Z" fill="white"/>
</mask>
<g mask="url(#mask22_2679_4039)">
<path d="M23.2786 73.3774H16.3539V83.2807H23.2786V73.3774Z" fill="url(#paint22_linear_2679_4039)"/>
</g>
<mask id="mask23_2679_4039" style="mask-type:luminance" maskUnits="userSpaceOnUse" x="16" y="94" width="7" height="10">
<path d="M21.7931 95.562C23.1524 97.4021 23.2808 100.319 22.0821 101.972C20.9369 103.614 18.9836 103.395 17.7207 101.609C16.4979 99.7658 16.3561 97.0042 17.4103 95.367C18.5207 93.7218 20.4847 93.7805 21.7931 95.562Z" fill="white"/>
</mask>
<g mask="url(#mask23_2679_4039)">
<path d="M23.2786 93.7212H16.3539V103.624H23.2786V93.7212Z" fill="url(#paint23_linear_2679_4039)"/>
</g>
<mask id="mask24_2679_4039" style="mask-type:luminance" maskUnits="userSpaceOnUse" x="32" y="115" width="9" height="10">
<path d="M39.4527 117.484C41.2508 119.439 41.4889 122.254 40.0521 123.798C38.6821 125.336 36.1723 124.973 34.4732 123.114C32.7741 121.256 32.4958 118.502 33.8123 116.958C35.1555 115.321 37.7108 115.58 39.4527 117.484Z" fill="white"/>
</mask>
<g mask="url(#mask24_2679_4039)">
<path d="M41.4878 115.32H32.4947V125.336H41.4878V115.32Z" fill="url(#paint24_linear_2679_4039)"/>
</g>
<mask id="mask25_2679_4039" style="mask-type:luminance" maskUnits="userSpaceOnUse" x="35" y="134" width="9" height="9">
<path d="M41.7961 136.65C43.6209 138.431 44.0517 140.827 42.8048 141.976C41.5954 143.044 39.2434 142.536 37.5176 140.854C35.7917 139.171 35.3048 136.848 36.4473 135.707C37.6139 134.468 40.0381 134.895 41.7961 136.65Z" fill="white"/>
</mask>
<g mask="url(#mask25_2679_4039)">
<path d="M44.0505 134.469H35.3035V143.059H44.0505V134.469Z" fill="url(#paint25_linear_2679_4039)"/>
</g>
<mask id="mask26_2679_4039" style="mask-type:luminance" maskUnits="userSpaceOnUse" x="39" y="150" width="9" height="7">
<path d="M45.277 152.077C47.0643 153.554 47.6289 155.298 46.5854 155.944C45.6355 156.55 43.5431 155.917 41.836 154.544C40.1289 153.172 39.4278 151.43 40.359 150.763C41.3276 150.023 43.519 150.573 45.277 152.077Z" fill="white"/>
</mask>
<g mask="url(#mask26_2679_4039)">
<path d="M47.6317 150.023H39.444V156.548H47.6317V150.023Z" fill="url(#paint26_linear_2679_4039)"/>
</g>
<mask id="mask27_2679_4039" style="mask-type:luminance" maskUnits="userSpaceOnUse" x="45" y="160" width="7" height="5">
<path d="M49.7515 162.566C51.4586 163.65 52.1169 164.606 51.3168 164.702C50.6292 164.748 48.7374 163.963 47.124 162.998C45.5105 162.034 44.6998 161.078 45.3634 160.953C46.0805 160.739 48.0712 161.46 49.7515 162.566Z" fill="white"/>
</mask>
<g mask="url(#mask27_2679_4039)">
<path d="M52.1152 160.738H44.6981V164.744H52.1152V160.738Z" fill="url(#paint27_linear_2679_4039)"/>
</g>
<mask id="mask28_2679_4039" style="mask-type:luminance" maskUnits="userSpaceOnUse" x="45" y="12" width="7" height="5">
<path d="M51.3148 12.3076C52.1175 12.4091 51.4566 13.3572 49.7495 14.4442C48.0424 15.5312 46.0731 16.2764 45.3613 16.0654C44.6978 15.9425 45.5326 15.0238 47.122 14.0222C48.7113 13.0207 50.6272 12.2568 51.3148 12.3076Z" fill="white"/>
</mask>
<g mask="url(#mask28_2679_4039)">
<path d="M52.1164 12.2568H44.6993V16.2684H52.1164V12.2568Z" fill="url(#paint28_linear_2679_4039)"/>
</g>
<mask id="mask29_2679_4039" style="mask-type:luminance" maskUnits="userSpaceOnUse" x="39" y="20" width="9" height="7">
<path d="M46.5856 21.0613C47.6292 21.7023 47.0646 23.4436 45.2772 24.9286C43.4898 26.4135 41.3252 26.9797 40.3592 26.2346C39.4415 25.5589 40.1612 23.8576 41.8362 22.4527C43.5112 21.0479 45.6357 20.455 46.5856 21.0613Z" fill="white"/>
</mask>
<g mask="url(#mask29_2679_4039)">
<path d="M47.6305 20.4565H39.4427V26.9813H47.6305V20.4565Z" fill="url(#paint29_linear_2679_4039)"/>
</g>
<mask id="mask30_2679_4039" style="mask-type:luminance" maskUnits="userSpaceOnUse" x="35" y="34" width="9" height="9">
<path d="M42.802 35.0317C44.0489 36.1801 43.6181 38.5732 41.7932 40.3546C40.038 42.1093 37.6138 42.5393 36.4418 41.2974C35.2939 40.1569 35.7996 37.8601 37.5121 36.1534C39.2245 34.4468 41.5926 33.95 42.802 35.0317Z" fill="white"/>
</mask>
<g mask="url(#mask30_2679_4039)">
<path d="M44.0502 33.9492H35.3033V42.5385H44.0502V33.9492Z" fill="url(#paint30_linear_2679_4039)"/>
</g>
<mask id="mask31_2679_4039" style="mask-type:luminance" maskUnits="userSpaceOnUse" x="31" y="72" width="9" height="11">
<path d="M38.589 74.0447C40.1704 75.9143 40.0847 78.9857 38.3723 80.9193C36.6598 82.853 34.0911 82.9171 32.574 81.0636C31.0997 79.2287 31.196 76.2855 32.8068 74.3412C34.4176 72.3968 37.0077 72.2927 38.589 74.0447Z" fill="white"/>
</mask>
<g mask="url(#mask31_2679_4039)">
<path d="M40.157 72.292H31.0863V82.9084H40.157V72.292Z" fill="url(#paint31_linear_2679_4039)"/>
</g>
<mask id="mask32_2679_4039" style="mask-type:luminance" maskUnits="userSpaceOnUse" x="31" y="94" width="9" height="11">
<path d="M38.3569 96.0965C40.0694 98.0301 40.155 101.11 38.5737 102.971C37.0057 104.712 34.429 104.574 32.7914 102.675C31.1539 100.776 31.095 97.7844 32.5586 95.9443C34.0784 94.0987 36.6792 94.1441 38.3569 96.0965Z" fill="white"/>
</mask>
<g mask="url(#mask32_2679_4039)">
<path d="M40.1559 94.0991H31.0852V104.716H40.1559V94.0991Z" fill="url(#paint32_linear_2679_4039)"/>
</g>
<mask id="mask33_2679_4039" style="mask-type:luminance" maskUnits="userSpaceOnUse" x="51" y="117" width="10" height="10">
<path d="M59.1407 118.828C61.094 120.767 61.2518 123.742 59.5099 125.459C57.7734 127.115 54.8568 126.923 52.9303 125.024C51.0038 123.125 50.8245 120.216 52.4995 118.499C54.2013 116.731 57.1981 116.894 59.1407 118.828Z" fill="white"/>
</mask>
<g mask="url(#mask33_2679_4039)">
<path d="M61.2525 116.731H50.8252V127.115H61.2525V116.731Z" fill="url(#paint33_linear_2679_4039)"/>
</g>
<mask id="mask34_2679_4039" style="mask-type:luminance" maskUnits="userSpaceOnUse" x="53" y="137" width="10" height="9">
<path d="M60.5511 138.944C62.4696 140.661 62.7104 143.161 61.1103 144.499C59.5504 145.786 56.7837 145.476 54.892 143.821C53.0002 142.165 52.7112 139.71 54.1909 138.324C55.7375 136.895 58.5952 137.16 60.5511 138.944Z" fill="white"/>
</mask>
<g mask="url(#mask34_2679_4039)">
<path d="M62.7086 136.895H52.7094V145.775H62.7086V136.895Z" fill="url(#paint34_linear_2679_4039)"/>
</g>
<mask id="mask35_2679_4039" style="mask-type:luminance" maskUnits="userSpaceOnUse" x="55" y="153" width="10" height="7">
<path d="M62.5756 155.17C64.4486 156.556 64.7296 158.374 63.3248 159.261C61.9869 160.062 59.4932 159.683 57.6362 158.372C55.8863 157.071 55.4207 155.263 56.6944 154.339C58.1178 153.404 60.6919 153.733 62.5756 155.17Z" fill="white"/>
</mask>
<g mask="url(#mask35_2679_4039)">
<path d="M64.7275 153.404H55.4213V160.073H64.7275V153.404Z" fill="url(#paint35_linear_2679_4039)"/>
</g>
<mask id="mask36_2679_4039" style="mask-type:luminance" maskUnits="userSpaceOnUse" x="59" y="165" width="8" height="4">
<path d="M65.2062 166.345C66.9722 167.296 67.2933 168.319 66.1668 168.661C64.9681 168.904 62.7392 168.431 61.0829 167.592C59.4267 166.754 58.8487 165.691 59.9565 165.335C61.1391 164.919 63.4724 165.349 65.2062 166.345Z" fill="white"/>
</mask>
<g mask="url(#mask36_2679_4039)">
<path d="M67.2932 164.92H58.8352V168.905H67.2932V164.92Z" fill="url(#paint36_linear_2679_4039)"/>
</g>
<mask id="mask37_2679_4039" style="mask-type:luminance" maskUnits="userSpaceOnUse" x="63" y="170" width="7" height="3">
<path d="M68.2871 171.586C69.3065 171.877 69.8764 172.069 69.847 172.093C67.6672 171.612 65.5088 171.045 63.3718 170.392C63.5154 170.39 63.6584 170.413 63.7945 170.458C65.313 170.745 66.8132 171.122 68.2871 171.586Z" fill="white"/>
</mask>
<g mask="url(#mask37_2679_4039)">
<path d="M69.8738 170.376H63.3718V172.091H69.8738V170.376Z" fill="url(#paint37_linear_2679_4039)"/>
</g>
<mask id="mask38_2679_4039" style="mask-type:luminance" maskUnits="userSpaceOnUse" x="63" y="4" width="7" height="3">
<path d="M69.847 4.91064C69.8764 4.93735 69.3119 5.12965 68.2871 5.41275C66.8131 5.87865 65.313 6.25766 63.7945 6.54784C63.6584 6.59364 63.5154 6.61621 63.3718 6.61461C65.5106 5.96116 67.669 5.39317 69.847 4.91064Z" fill="white"/>
</mask>
<g mask="url(#mask38_2679_4039)">
<path d="M69.8738 4.91064H63.3718V6.62529H69.8738V4.91064Z" fill="url(#paint38_linear_2679_4039)"/>
</g>
<mask id="mask39_2679_4039" style="mask-type:luminance" maskUnits="userSpaceOnUse" x="59" y="8" width="8" height="4">
<path d="M66.1645 8.34462C67.291 8.68648 66.9672 9.70939 65.2039 10.6602C63.4781 11.6564 61.1368 12.0837 59.9408 11.6697C58.833 11.3119 59.427 10.2836 61.0672 9.41293C62.7075 8.54225 64.9658 8.10157 66.1645 8.34462Z" fill="white"/>
</mask>
<g mask="url(#mask39_2679_4039)">
<path d="M67.2922 8.10303H58.8343V12.0878H67.2922V8.10303Z" fill="url(#paint39_linear_2679_4039)"/>
</g>
<mask id="mask40_2679_4039" style="mask-type:luminance" maskUnits="userSpaceOnUse" x="55" y="17" width="10" height="7">
<path d="M63.3273 17.7473C64.732 18.6233 64.4404 20.4528 62.5781 21.8363C60.705 23.2759 58.1069 23.6124 56.6915 22.6696C55.4178 21.7455 55.8887 19.9427 57.6333 18.6314C59.4956 17.3253 61.9814 16.9354 63.3273 17.7473Z" fill="white"/>
</mask>
<g mask="url(#mask40_2679_4039)">
<path d="M64.7288 16.9341H55.4227V23.6111H64.7288V16.9341Z" fill="url(#paint40_linear_2679_4039)"/>
</g>
<mask id="mask41_2679_4039" style="mask-type:luminance" maskUnits="userSpaceOnUse" x="53" y="31" width="10" height="9">
<path d="M61.1104 32.5206C62.7158 33.856 62.4696 36.3585 60.5512 38.0758C58.5952 39.8492 55.7349 40.1056 54.191 38.6874C52.7113 37.3093 53.0351 34.8628 54.892 33.1989C56.749 31.535 59.5504 31.2332 61.1104 32.5206Z" fill="white"/>
</mask>
<g mask="url(#mask41_2679_4039)">
<path d="M62.7109 31.2329H52.7117V40.1079H62.7109V31.2329Z" fill="url(#paint41_linear_2679_4039)"/>
</g>
<mask id="mask42_2679_4039" style="mask-type:luminance" maskUnits="userSpaceOnUse" x="50" y="94" width="10" height="11">
<path d="M58.4902 96.4264C60.4435 98.4588 60.4836 101.65 58.6133 103.597C56.767 105.504 53.7354 105.419 51.8384 103.44C49.9413 101.461 49.8878 98.2799 51.6885 96.3516C53.4893 94.4233 56.5637 94.4206 58.4902 96.4264Z" fill="white"/>
</mask>
<g mask="url(#mask42_2679_4039)">
<path d="M60.4838 94.4092H49.8879V105.506H60.4838V94.4092Z" fill="url(#paint42_linear_2679_4039)"/>
</g>
<mask id="mask43_2679_4039" style="mask-type:luminance" maskUnits="userSpaceOnUse" x="74" y="155" width="10" height="7">
<path d="M81.8425 156.593C83.6085 157.854 83.6914 159.74 82.0164 160.795C80.3682 161.799 77.6256 161.668 75.8623 160.506C74.0214 159.278 73.8287 157.411 75.4743 156.324C77.152 155.167 80.007 155.287 81.8425 156.593Z" fill="white"/>
</mask>
<g mask="url(#mask43_2679_4039)">
<path d="M83.6921 155.167H73.8401V161.799H83.6921V155.167Z" fill="url(#paint43_linear_2679_4039)"/>
</g>
<mask id="mask44_2679_4039" style="mask-type:luminance" maskUnits="userSpaceOnUse" x="75" y="167" width="9" height="4">
<path d="M82.4862 168.093C84.1237 168.868 84.2307 169.963 82.7189 170.497C81.2687 170.972 78.8713 170.815 77.2845 170.147C75.6443 169.415 75.4115 168.352 76.8029 167.768C78.2612 167.105 80.8004 167.255 82.4862 168.093Z" fill="white"/>
</mask>
<g mask="url(#mask44_2679_4039)">
<path d="M84.2297 167.104H75.4079V170.964H84.2297V167.104Z" fill="url(#paint44_linear_2679_4039)"/>
</g>
<mask id="mask45_2679_4039" style="mask-type:luminance" maskUnits="userSpaceOnUse" x="77" y="173" width="8" height="1">
<path d="M83.2723 173.573C84.7064 173.811 84.7921 173.998 83.6094 173.982C82.004 173.896 80.4074 173.763 78.8199 173.581C77.4365 173.389 77.1449 173.212 78.3355 173.191C79.9903 173.132 81.6463 173.261 83.2723 173.573Z" fill="white"/>
</mask>
<g mask="url(#mask45_2679_4039)">
<path d="M84.7945 173.099H77.1447V173.997H84.7945V173.099Z" fill="url(#paint45_linear_2679_4039)"/>
</g>
<mask id="mask46_2679_4039" style="mask-type:luminance" maskUnits="userSpaceOnUse" x="77" y="3" width="8" height="1">
<path d="M83.6094 3.01221C84.7921 3.01221 84.7064 3.19115 83.2723 3.42084C81.6466 3.73477 79.9902 3.86202 78.3355 3.80009C77.1449 3.77872 77.4365 3.60245 78.8199 3.41015C80.411 3.23744 82.0075 3.10479 83.6094 3.01221Z" fill="white"/>
</mask>
<g mask="url(#mask46_2679_4039)">
<path d="M84.7945 2.99805H77.1447V3.90077H84.7945V2.99805Z" fill="url(#paint46_linear_2679_4039)"/>
</g>
<mask id="mask47_2679_4039" style="mask-type:luminance" maskUnits="userSpaceOnUse" x="75" y="6" width="9" height="4">
<path d="M82.7192 6.51931C84.231 7.06682 84.124 8.12178 82.4864 8.92302C80.8007 9.76699 78.2614 9.91388 76.8032 9.25954C75.4064 8.67196 75.6446 7.61166 77.2848 6.87719C78.8715 6.20682 81.269 6.04391 82.7192 6.51931Z" fill="white"/>
</mask>
<g mask="url(#mask47_2679_4039)">
<path d="M84.2299 6.04492H75.4081V9.90421H84.2299V6.04492Z" fill="url(#paint47_linear_2679_4039)"/>
</g>
<mask id="mask48_2679_4039" style="mask-type:luminance" maskUnits="userSpaceOnUse" x="74" y="15" width="10" height="7">
<path d="M82.0167 16.204C83.6917 17.2723 83.6088 19.1418 81.8428 20.4131C80.0072 21.7191 77.1523 21.8367 75.4853 20.6802C73.8397 19.5905 74.0324 17.7263 75.8733 16.4977C77.6259 15.3466 80.3685 15.1997 82.0167 16.204Z" fill="white"/>
</mask>
<g mask="url(#mask48_2679_4039)">
<path d="M83.6918 15.2002H73.8398V21.8371H83.6918V15.2002Z" fill="url(#paint48_linear_2679_4039)"/>
</g>
<mask id="mask49_2679_4039" style="mask-type:luminance" maskUnits="userSpaceOnUse" x="73" y="30" width="10" height="9">
<path d="M81.4615 31.3489C83.2837 32.8472 83.2007 35.4005 81.2689 37.0511C79.337 38.7016 76.2492 38.8245 74.4351 37.2541C72.6477 35.7317 72.8296 33.1784 74.7669 31.5679C76.6639 30.0029 79.6661 29.8907 81.4615 31.3489Z" fill="white"/>
</mask>
<g mask="url(#mask49_2679_4039)">
<path d="M83.2817 29.8892H72.6483V38.823H83.2817V29.8892Z" fill="url(#paint49_linear_2679_4039)"/>
</g>
<mask id="mask50_2679_4039" style="mask-type:luminance" maskUnits="userSpaceOnUse" x="94" y="138" width="10" height="9">
<path d="M102.578 139.747C104.371 141.272 104.231 143.804 102.31 145.415C100.389 147.025 97.4083 147.097 95.6209 145.653C93.7988 144.154 93.8255 141.601 95.7494 139.958C97.7187 138.262 100.769 138.177 102.578 139.747Z" fill="white"/>
</mask>
<g mask="url(#mask50_2679_4039)">
<path d="M104.369 138.177H93.7943V147.095H104.369V138.177Z" fill="url(#paint50_linear_2679_4039)"/>
</g>
<mask id="mask51_2679_4039" style="mask-type:luminance" maskUnits="userSpaceOnUse" x="93" y="155" width="10" height="7">
<path d="M101.546 156.302C103.191 157.397 102.998 159.264 101.155 160.49C99.4023 161.646 96.665 161.785 95.0141 160.786C93.3391 159.718 93.422 157.848 95.2576 156.58C97.0235 155.279 99.9428 155.148 101.546 156.302Z" fill="white"/>
</mask>
<g mask="url(#mask51_2679_4039)">
<path d="M103.192 155.148H93.3397V161.793H103.192V155.148Z" fill="url(#paint51_linear_2679_4039)"/>
</g>
<mask id="mask52_2679_4039" style="mask-type:luminance" maskUnits="userSpaceOnUse" x="93" y="167" width="9" height="4">
<path d="M100.236 167.754C101.713 168.328 101.472 169.391 99.8347 170.123C98.1731 170.801 95.7676 170.961 94.3201 170.486C92.8885 169.938 92.9099 168.87 94.5502 168.082C96.2359 167.257 98.7751 167.099 100.236 167.754Z" fill="white"/>
</mask>
<g mask="url(#mask52_2679_4039)">
<path d="M101.71 167.099H92.888V170.958H101.71V167.099Z" fill="url(#paint52_linear_2679_4039)"/>
</g>
<mask id="mask53_2679_4039" style="mask-type:luminance" maskUnits="userSpaceOnUse" x="92" y="173" width="8" height="1">
<path d="M98.7125 173.191C99.9085 173.191 99.6864 173.37 98.2817 173.573C96.695 173.752 95.1029 173.883 93.5135 173.976C92.2533 173.998 92.3389 173.811 93.7811 173.573C95.4044 173.255 97.0594 173.126 98.7125 173.191Z" fill="white"/>
</mask>
<g mask="url(#mask53_2679_4039)">
<path d="M99.9097 173.091H92.2517V173.994H99.9097V173.091Z" fill="url(#paint53_linear_2679_4039)"/>
</g>
<mask id="mask54_2679_4039" style="mask-type:luminance" maskUnits="userSpaceOnUse" x="92" y="3" width="8" height="1">
<path d="M98.2817 3.43777C99.6865 3.63007 99.9085 3.801 98.7125 3.81435C97.0567 3.87588 95.3993 3.74683 93.7731 3.42976C92.3389 3.19473 92.2533 3.01044 93.5055 3.02914C95.1003 3.11995 96.6923 3.25616 98.2817 3.43777Z" fill="white"/>
</mask>
<g mask="url(#mask54_2679_4039)">
<path d="M99.9097 3.00977H92.2518V3.90715H99.9097V3.00977Z" fill="url(#paint54_linear_2679_4039)"/>
</g>
<mask id="mask55_2679_4039" style="mask-type:luminance" maskUnits="userSpaceOnUse" x="93" y="6" width="9" height="4">
<path d="M99.8346 6.88554C101.472 7.61734 101.708 8.68031 100.236 9.25453C98.775 9.90086 96.2357 9.75397 94.55 8.91801C92.9098 8.13814 92.8884 7.06983 94.3199 6.5143C95.7675 6.04691 98.1729 6.20449 99.8346 6.88554Z" fill="white"/>
</mask>
<g mask="url(#mask55_2679_4039)">
<path d="M101.71 6.04834H92.8879V9.90229H101.71V6.04834Z" fill="url(#paint55_linear_2679_4039)"/>
</g>
<mask id="mask56_2679_4039" style="mask-type:luminance" maskUnits="userSpaceOnUse" x="93" y="15" width="10" height="7">
<path d="M101.155 16.5015C102.998 17.7301 103.191 19.597 101.545 20.692C99.94 21.8538 97.0234 21.7229 95.2574 20.4249C93.4219 19.1643 93.339 17.2787 95.014 16.2158C96.6649 15.2035 99.4021 15.3424 101.155 16.5015Z" fill="white"/>
</mask>
<g mask="url(#mask56_2679_4039)">
<path d="M103.192 15.2026H93.3397V21.8529H103.192V15.2026Z" fill="url(#paint56_linear_2679_4039)"/>
</g>
<mask id="mask57_2679_4039" style="mask-type:luminance" maskUnits="userSpaceOnUse" x="94" y="30" width="10" height="9">
<path d="M102.316 31.5923C104.232 33.1948 104.371 35.7347 102.583 37.2597C100.775 38.8302 97.7162 38.7367 95.7495 37.0487C93.8257 35.4062 93.7989 32.8529 95.6211 31.3546C97.4138 29.9017 100.362 30.0085 102.316 31.5923Z" fill="white"/>
</mask>
<g mask="url(#mask57_2679_4039)">
<path d="M104.369 29.9033H93.7943V38.8291H104.369V29.9033Z" fill="url(#paint57_linear_2679_4039)"/>
</g>
<mask id="mask58_2679_4039" style="mask-type:luminance" maskUnits="userSpaceOnUse" x="116" y="117" width="10" height="10">
<path d="M124.535 118.433C126.213 120.143 125.988 123.091 124.115 124.966C122.194 126.865 119.235 127.089 117.536 125.407C115.756 123.724 115.912 120.743 117.865 118.81C119.818 116.876 122.807 116.705 124.535 118.433Z" fill="white"/>
</mask>
<g mask="url(#mask58_2679_4039)">
<path d="M126.213 116.704H115.756V127.088H126.213V116.704Z" fill="url(#paint58_linear_2679_4039)"/>
</g>
<mask id="mask59_2679_4039" style="mask-type:luminance" maskUnits="userSpaceOnUse" x="114" y="137" width="10" height="9">
<path d="M122.829 138.3C124.365 139.635 124.038 142.092 122.133 143.788C120.228 145.484 117.475 145.762 115.912 144.474C114.371 143.104 114.604 140.602 116.517 138.887C118.43 137.172 121.282 136.881 122.829 138.3Z" fill="white"/>
</mask>
<g mask="url(#mask59_2679_4039)">
<path d="M124.364 136.881H114.37V145.762H124.364V136.881Z" fill="url(#paint59_linear_2679_4039)"/>
</g>
<mask id="mask60_2679_4039" style="mask-type:luminance" maskUnits="userSpaceOnUse" x="112" y="153" width="10" height="7">
<path d="M120.328 154.319C121.666 155.208 121.211 157.011 119.395 158.357C117.607 159.642 115.052 160.058 113.706 159.238C112.299 158.37 112.657 156.514 114.453 155.149C116.331 153.71 118.985 153.349 120.328 154.319Z" fill="white"/>
</mask>
<g mask="url(#mask60_2679_4039)">
<path d="M121.673 153.349H112.3V160.058H121.673V153.349Z" fill="url(#paint60_linear_2679_4039)"/>
</g>
<mask id="mask61_2679_4039" style="mask-type:luminance" maskUnits="userSpaceOnUse" x="110" y="165" width="8" height="4">
<path d="M117.092 165.315C118.2 165.67 117.686 166.674 115.968 167.569C114.299 168.407 112.073 168.888 110.951 168.637C109.745 168.314 110.149 167.27 111.832 166.34C113.563 165.333 115.974 164.879 117.092 165.315Z" fill="white"/>
</mask>
<g mask="url(#mask61_2679_4039)">
<path d="M118.197 164.881H109.745V168.892H118.197V164.881Z" fill="url(#paint61_linear_2679_4039)"/>
</g>
<mask id="mask62_2679_4039" style="mask-type:luminance" maskUnits="userSpaceOnUse" x="107" y="170" width="7" height="3">
<path d="M113.326 170.423C113.551 170.37 113.709 170.343 113.69 170.37C111.571 171.016 109.43 171.579 107.268 172.058C107.244 172.031 107.734 171.86 108.745 171.572C110.248 171.097 111.777 170.714 113.326 170.423Z" fill="white"/>
</mask>
<g mask="url(#mask62_2679_4039)">
<path d="M113.708 170.344H107.252V172.058H113.708V170.344Z" fill="url(#paint62_linear_2679_4039)"/>
</g>
<mask id="mask63_2679_4039" style="mask-type:luminance" maskUnits="userSpaceOnUse" x="107" y="4" width="7" height="3">
<path d="M113.687 6.63443C113.706 6.66114 113.548 6.63443 113.323 6.58101C111.777 6.28934 110.25 5.90404 108.751 5.42723C107.739 5.14413 107.249 4.97053 107.274 4.93848C109.43 5.42634 111.568 5.99166 113.687 6.63443Z" fill="white"/>
</mask>
<g mask="url(#mask63_2679_4039)">
<path d="M113.707 4.93848H107.251V6.66114H113.707V4.93848Z" fill="url(#paint63_linear_2679_4039)"/>
</g>
<mask id="mask64_2679_4039" style="mask-type:luminance" maskUnits="userSpaceOnUse" x="110" y="8" width="8" height="4">
<path d="M115.97 9.42765C117.688 10.3304 118.202 11.3266 117.094 11.6845C115.976 12.1332 113.565 11.6845 111.834 10.6802C110.148 9.7428 109.747 8.70119 110.953 8.37803C112.074 8.11362 114.311 8.61039 115.97 9.42765Z" fill="white"/>
</mask>
<g mask="url(#mask64_2679_4039)">
<path d="M118.198 8.11426H109.746V12.1311H118.198V8.11426Z" fill="url(#paint64_linear_2679_4039)"/>
</g>
<mask id="mask65_2679_4039" style="mask-type:luminance" maskUnits="userSpaceOnUse" x="112" y="17" width="10" height="7">
<path d="M119.392 18.6468C121.209 19.9821 121.669 21.7956 120.326 22.685C118.988 23.6491 116.329 23.2913 114.44 21.8544C112.644 20.4869 112.286 18.6334 113.693 17.7574C115.052 16.9508 117.608 17.3621 119.392 18.6468Z" fill="white"/>
</mask>
<g mask="url(#mask65_2679_4039)">
<path d="M121.673 16.9512H112.3V23.6468H121.673V16.9512Z" fill="url(#paint65_linear_2679_4039)"/>
</g>
<mask id="mask66_2679_4039" style="mask-type:luminance" maskUnits="userSpaceOnUse" x="114" y="31" width="10" height="9">
<path d="M122.134 33.2201C124.039 34.9134 124.365 37.3625 122.83 38.7086C121.283 40.1268 118.425 39.8624 116.517 38.121C114.61 36.3797 114.377 33.9038 115.913 32.5311C117.475 31.2464 120.242 31.5642 122.134 33.2201Z" fill="white"/>
</mask>
<g mask="url(#mask66_2679_4039)">
<path d="M124.366 31.2456H114.373V40.126H124.366V31.2456Z" fill="url(#paint66_linear_2679_4039)"/>
</g>
<mask id="mask67_2679_4039" style="mask-type:luminance" maskUnits="userSpaceOnUse" x="117" y="94" width="10" height="11">
<path d="M125.317 96.3043C127.121 98.2219 127.056 101.379 125.178 103.382C123.3 105.385 120.239 105.486 118.387 103.588C116.514 101.635 116.568 98.4142 118.51 96.4084C120.453 94.4027 123.487 94.3573 125.317 96.3043Z" fill="white"/>
</mask>
<g mask="url(#mask67_2679_4039)">
<path d="M127.12 94.356H116.518V105.485H127.12V94.356Z" fill="url(#paint67_linear_2679_4039)"/>
</g>
<mask id="mask68_2679_4039" style="mask-type:luminance" maskUnits="userSpaceOnUse" x="136" y="115" width="9" height="10">
<path d="M143.221 116.875C144.543 118.419 144.233 121.175 142.537 123.082C140.84 124.951 138.36 125.259 136.96 123.776C135.518 122.225 135.788 119.37 137.554 117.463C139.32 115.556 141.852 115.291 143.221 116.875Z" fill="white"/>
</mask>
<g mask="url(#mask68_2679_4039)">
<path d="M144.543 115.29H135.518V125.26H144.543V115.29Z" fill="url(#paint68_linear_2679_4039)"/>
</g>
<mask id="mask69_2679_4039" style="mask-type:luminance" maskUnits="userSpaceOnUse" x="133" y="134" width="9" height="9">
<path d="M140.613 135.623C141.71 136.811 141.21 139.119 139.503 140.828C137.796 142.538 135.43 143.032 134.275 141.897C133.02 140.748 133.448 138.352 135.222 136.619C137.023 134.819 139.401 134.437 140.613 135.623Z" fill="white"/>
</mask>
<g mask="url(#mask69_2679_4039)">
<path d="M141.711 134.435H133.02V143.032H141.711V134.435Z" fill="url(#paint69_linear_2679_4039)"/>
</g>
<mask id="mask70_2679_4039" style="mask-type:luminance" maskUnits="userSpaceOnUse" x="129" y="150" width="9" height="7">
<path d="M136.665 150.737C137.588 151.405 136.932 153.061 135.257 154.476C133.582 155.892 131.394 156.536 130.441 155.935C129.462 155.243 130.021 153.507 131.75 152.062C133.513 150.548 135.763 149.947 136.665 150.737Z" fill="white"/>
</mask>
<g mask="url(#mask70_2679_4039)">
<path d="M137.585 149.947H129.467V156.525H137.585V149.947Z" fill="url(#paint70_linear_2679_4039)"/>
</g>
<mask id="mask71_2679_4039" style="mask-type:luminance" maskUnits="userSpaceOnUse" x="125" y="160" width="7" height="5">
<path d="M131.669 160.916C132.335 161.047 131.5 161.984 129.911 162.967C128.322 163.95 126.481 164.69 125.715 164.677C124.913 164.578 125.651 163.587 127.283 162.54C128.964 161.437 130.96 160.711 131.669 160.916Z" fill="white"/>
</mask>
<g mask="url(#mask71_2679_4039)">
<path d="M132.337 160.71H124.917V164.69H132.337V160.71Z" fill="url(#paint71_linear_2679_4039)"/>
</g>
<mask id="mask72_2679_4039" style="mask-type:luminance" maskUnits="userSpaceOnUse" x="125" y="12" width="7" height="5">
<path d="M129.913 14.0384C131.503 15.0346 132.337 15.956 131.671 16.0815C130.962 16.2952 128.966 15.5741 127.286 14.4604C125.653 13.4161 124.918 12.4279 125.718 12.3237C126.483 12.3211 128.3 13.0742 129.913 14.0384Z" fill="white"/>
</mask>
<g mask="url(#mask72_2679_4039)">
<path d="M132.338 12.3228H124.918V16.2942H132.338V12.3228Z" fill="url(#paint72_linear_2679_4039)"/>
</g>
<mask id="mask73_2679_4039" style="mask-type:luminance" maskUnits="userSpaceOnUse" x="129" y="20" width="9" height="7">
<path d="M135.256 22.5361C136.931 23.9409 137.587 25.6049 136.664 26.2752C135.762 27.0604 133.512 26.4675 131.754 24.9639C130.025 23.519 129.466 21.7776 130.445 21.0912C131.392 20.4849 133.552 21.1633 135.256 22.5361Z" fill="white"/>
</mask>
<g mask="url(#mask73_2679_4039)">
<path d="M137.582 20.4844H129.464V27.0545H137.582V20.4844Z" fill="url(#paint73_linear_2679_4039)"/>
</g>
<mask id="mask74_2679_4039" style="mask-type:luminance" maskUnits="userSpaceOnUse" x="133" y="34" width="9" height="9">
<path d="M139.503 36.1841C141.21 37.8854 141.71 40.1903 140.613 41.3762C139.401 42.5647 137.022 42.1774 135.222 40.38C133.448 38.6439 133.019 36.2429 134.274 35.1025C135.43 33.9807 137.777 34.4962 139.503 36.1841Z" fill="white"/>
</mask>
<g mask="url(#mask74_2679_4039)">
<path d="M141.711 33.9751H133.02V42.5644H141.711V33.9751Z" fill="url(#paint74_linear_2679_4039)"/>
</g>
<mask id="mask75_2679_4039" style="mask-type:luminance" maskUnits="userSpaceOnUse" x="136" y="52" width="9" height="10">
<path d="M142.541 53.9242C144.237 55.8311 144.548 58.59 143.226 60.1284C141.856 61.7175 139.298 61.4638 137.559 59.5462C135.82 57.6286 135.523 54.7761 136.965 53.2324C138.364 51.7475 140.845 52.0653 142.541 53.9242Z" fill="white"/>
</mask>
<g mask="url(#mask75_2679_4039)">
<path d="M144.548 51.7441H135.523V61.7142H144.548V51.7441Z" fill="url(#paint75_linear_2679_4039)"/>
</g>
<mask id="mask76_2679_4039" style="mask-type:luminance" maskUnits="userSpaceOnUse" x="137" y="94" width="9" height="11">
<path d="M144.441 95.9173C145.921 97.6907 145.814 100.693 144.222 102.594C142.571 104.552 139.994 104.691 138.442 102.899C136.837 101.091 136.928 98.0032 138.638 96.0749C140.347 94.1466 142.913 94.0718 144.441 95.9173Z" fill="white"/>
</mask>
<g mask="url(#mask76_2679_4039)">
<path d="M145.921 94.0605H136.842V104.682H145.921V94.0605Z" fill="url(#paint76_linear_2679_4039)"/>
</g>
<mask id="mask77_2679_4039" style="mask-type:luminance" maskUnits="userSpaceOnUse" x="152" y="113" width="7" height="10">
<path d="M157.98 114.685C158.831 116.058 158.424 118.592 157.086 120.398C155.748 122.203 153.849 122.628 152.899 121.316C151.898 119.936 152.251 117.297 153.701 115.483C155.141 113.617 157.073 113.253 157.98 114.685Z" fill="white"/>
</mask>
<g mask="url(#mask77_2679_4039)">
<path d="M158.83 113.252H151.898V122.626H158.83V113.252Z" fill="url(#paint77_linear_2679_4039)"/>
</g>
<mask id="mask78_2679_4039" style="mask-type:luminance" maskUnits="userSpaceOnUse" x="148" y="131" width="7" height="8">
<path d="M154.52 131.962C155.176 132.881 154.52 134.964 153.129 136.633C151.649 138.343 149.918 139.002 149.209 138.11C148.422 137.176 148.989 134.977 150.509 133.255C152.029 131.532 153.824 130.947 154.52 131.962Z" fill="white"/>
</mask>
<g mask="url(#mask78_2679_4039)">
<path d="M155.174 130.945H148.421V139H155.174V130.945Z" fill="url(#paint78_linear_2679_4039)"/>
</g>
<mask id="mask79_2679_4039" style="mask-type:luminance" maskUnits="userSpaceOnUse" x="143" y="145" width="7" height="7">
<path d="M149.437 145.623C149.815 146.098 148.94 147.594 147.503 149.028C146.066 150.462 144.463 151.33 144.008 150.94C143.422 150.537 144.206 148.942 145.748 147.468C147.318 145.89 148.929 145.15 149.437 145.623Z" fill="white"/>
</mask>
<g mask="url(#mask79_2679_4039)">
<path d="M149.815 145.149H143.423V151.332H149.815V145.149Z" fill="url(#paint79_linear_2679_4039)"/>
</g>
<mask id="mask80_2679_4039" style="mask-type:luminance" maskUnits="userSpaceOnUse" x="137" y="154" width="6" height="5">
<path d="M142.807 154.756C142.884 154.708 142.825 154.756 142.756 154.828C141.095 156.199 139.388 157.492 137.635 158.708C137.562 158.762 137.562 158.754 137.56 158.754C137.239 158.893 138.132 158.081 139.7 156.884C141.172 155.717 142.598 154.769 142.807 154.756Z" fill="white"/>
</mask>
<g mask="url(#mask80_2679_4039)">
<path d="M142.884 154.708H137.233V158.885H142.884V154.708Z" fill="url(#paint80_linear_2679_4039)"/>
</g>
<mask id="mask81_2679_4039" style="mask-type:luminance" maskUnits="userSpaceOnUse" x="137" y="18" width="6" height="5">
<path d="M142.763 22.1715C142.832 22.2249 142.891 22.289 142.813 22.2436C142.605 22.2436 141.178 21.2741 139.704 20.107C138.134 18.9211 137.24 18.1092 137.564 18.2374C137.564 18.2374 137.564 18.2374 137.639 18.2828C139.39 19.5132 141.098 20.8094 142.763 22.1715Z" fill="white"/>
</mask>
<g mask="url(#mask81_2679_4039)">
<path d="M142.885 18.1201H137.234V22.2972H142.885V18.1201Z" fill="url(#paint81_linear_2679_4039)"/>
</g>
<mask id="mask82_2679_4039" style="mask-type:luminance" maskUnits="userSpaceOnUse" x="143" y="25" width="7" height="7">
<path d="M147.503 27.977C148.94 29.4085 149.815 30.9148 149.437 31.3822C148.929 31.8576 147.318 31.1151 145.748 29.5474C144.206 28.0624 143.422 26.4653 144.008 26.0754C144.463 25.6747 146.039 26.5721 147.503 27.977Z" fill="white"/>
</mask>
<g mask="url(#mask82_2679_4039)">
<path d="M149.815 25.6763H143.423V31.8591H149.815V25.6763Z" fill="url(#paint82_linear_2679_4039)"/>
</g>
<mask id="mask83_2679_4039" style="mask-type:luminance" maskUnits="userSpaceOnUse" x="148" y="38" width="7" height="8">
<path d="M153.129 40.369C154.528 42.0462 155.176 44.1375 154.52 45.0482C153.825 46.0631 152.013 45.5022 150.507 43.7555C149 42.0088 148.42 39.8402 149.206 38.8974C149.921 38.008 151.649 38.6677 153.129 40.369Z" fill="white"/>
</mask>
<g mask="url(#mask83_2679_4039)">
<path d="M155.176 38.0063H148.423V46.0614H155.176V38.0063Z" fill="url(#paint83_linear_2679_4039)"/>
</g>
<mask id="mask84_2679_4039" style="mask-type:luminance" maskUnits="userSpaceOnUse" x="152" y="54" width="7" height="10">
<path d="M157.086 56.6062C158.424 58.4117 158.831 60.9463 157.98 62.319C157.073 63.7506 155.141 63.3874 153.699 61.5178C152.243 59.6963 151.89 57.0629 152.896 55.6848C153.848 54.3734 155.727 54.8302 157.086 56.6062Z" fill="white"/>
</mask>
<g mask="url(#mask84_2679_4039)">
<path d="M158.83 54.374H151.898V63.7485H158.83V54.374Z" fill="url(#paint84_linear_2679_4039)"/>
</g>
<mask id="mask85_2679_4039" style="mask-type:luminance" maskUnits="userSpaceOnUse" x="154" y="73" width="7" height="10">
<path d="M159.293 75.4952C160.503 77.2713 160.631 80.0356 159.588 81.6648C158.48 83.3928 156.516 83.2672 155.21 81.4805C153.845 79.6376 153.73 76.7826 154.943 75.1267C156.082 73.4841 158.017 73.6337 159.293 75.4952Z" fill="white"/>
</mask>
<g mask="url(#mask85_2679_4039)">
<path d="M160.64 73.4863H153.729V83.395H160.64V73.4863Z" fill="url(#paint85_linear_2679_4039)"/>
</g>
<mask id="mask86_2679_4039" style="mask-type:luminance" maskUnits="userSpaceOnUse" x="154" y="94" width="7" height="10">
<path d="M159.587 95.3388C160.642 96.968 160.502 99.7323 159.293 101.508C158.017 103.378 156.082 103.519 154.934 101.877C153.73 100.221 153.845 97.3633 155.202 95.5231C156.516 93.7417 158.48 93.6108 159.587 95.3388Z" fill="white"/>
</mask>
<g mask="url(#mask86_2679_4039)">
<path d="M160.64 93.6113H153.729V103.52H160.64V93.6113Z" fill="url(#paint86_linear_2679_4039)"/>
</g>
<mask id="mask87_2679_4039" style="mask-type:luminance" maskUnits="userSpaceOnUse" x="164" y="111" width="4" height="8">
<path d="M167.762 111.938C168.086 113.079 167.593 115.37 166.692 117.079C165.739 118.759 164.623 119.288 164.209 118.161C163.708 117.013 164.152 114.617 165.215 112.862C166.221 111.148 167.35 110.798 167.762 111.938Z" fill="white"/>
</mask>
<g mask="url(#mask87_2679_4039)">
<path d="M168.084 110.797H163.696V119.287H168.084V110.797Z" fill="url(#paint87_linear_2679_4039)"/>
</g>
<mask id="mask88_2679_4039" style="mask-type:luminance" maskUnits="userSpaceOnUse" x="159" y="126" width="5" height="8">
<path d="M163.649 127.27C163.7 128.071 162.945 129.874 161.893 131.525C160.85 133.082 159.817 133.928 159.657 133.234C159.368 132.556 160.093 130.563 161.289 128.859C162.413 127.193 163.469 126.517 163.649 127.27Z" fill="white"/>
</mask>
<g mask="url(#mask88_2679_4039)">
<path d="M163.699 126.518H159.367V133.934H163.699V126.518Z" fill="url(#paint88_linear_2679_4039)"/>
</g>
<mask id="mask89_2679_4039" style="mask-type:luminance" maskUnits="userSpaceOnUse" x="153" y="139" width="5" height="6">
<path d="M157.493 139.348C157.424 139.474 157.345 139.596 157.258 139.711C156.082 141.281 154.848 142.816 153.554 144.315C153.383 144.505 153.257 144.625 153.233 144.612C153.233 144.382 154.213 142.969 155.419 141.53C156.645 140.01 157.56 139.083 157.493 139.348Z" fill="white"/>
</mask>
<g mask="url(#mask89_2679_4039)">
<path d="M157.56 139.083H153.233V144.625H157.56V139.083Z" fill="url(#paint89_linear_2679_4039)"/>
</g>
<mask id="mask90_2679_4039" style="mask-type:luminance" maskUnits="userSpaceOnUse" x="153" y="32" width="5" height="6">
<path d="M157.258 37.2915C157.346 37.4062 157.424 37.5277 157.493 37.6547C157.56 37.9218 156.645 37.0004 155.419 35.47C154.213 34.0332 153.236 32.6203 153.233 32.3906C153.257 32.3906 153.383 32.4948 153.554 32.6791C154.849 34.1854 156.083 35.7291 157.258 37.2915Z" fill="white"/>
</mask>
<g mask="url(#mask90_2679_4039)">
<path d="M157.56 32.3784H153.233V37.9203H157.56V32.3784Z" fill="url(#paint90_linear_2679_4039)"/>
</g>
<mask id="mask91_2679_4039" style="mask-type:luminance" maskUnits="userSpaceOnUse" x="159" y="43" width="5" height="8">
<path d="M161.937 45.5518C162.948 47.1276 163.703 48.9437 163.652 49.7343C163.473 50.4874 162.416 49.8064 161.292 48.1318C160.096 46.4225 159.371 44.4301 159.66 43.757C159.815 43.06 160.848 43.9226 161.937 45.5518Z" fill="white"/>
</mask>
<g mask="url(#mask91_2679_4039)">
<path d="M163.698 43.0723H159.366V50.489H163.698V43.0723Z" fill="url(#paint91_linear_2679_4039)"/>
</g>
<mask id="mask92_2679_4039" style="mask-type:luminance" maskUnits="userSpaceOnUse" x="163" y="58" width="5" height="8">
<path d="M166.679 59.9288C167.591 61.6381 168.084 63.935 167.749 65.07C167.337 66.2105 166.194 65.8713 165.191 64.146C164.121 62.3912 163.685 59.9955 164.185 58.8471C164.613 57.712 165.726 58.2488 166.679 59.9288Z" fill="white"/>
</mask>
<g mask="url(#mask92_2679_4039)">
<path d="M168.083 57.7134H163.695V66.2118H168.083V57.7134Z" fill="url(#paint92_linear_2679_4039)"/>
</g>
<mask id="mask93_2679_4039" style="mask-type:luminance" maskUnits="userSpaceOnUse" x="166" y="75" width="5" height="9">
<path d="M169.317 76.8042C170.061 78.4334 170.23 80.9733 169.679 82.4129C169.069 83.9112 167.875 83.8257 167.022 82.1458C166.12 80.5032 165.951 77.8511 166.69 76.4009C167.332 74.9106 168.523 75.2017 169.317 76.8042Z" fill="white"/>
</mask>
<g mask="url(#mask93_2679_4039)">
<path d="M170.229 74.9111H165.964V83.909H170.229V74.9111Z" fill="url(#paint93_linear_2679_4039)"/>
</g>
<mask id="mask94_2679_4039" style="mask-type:luminance" maskUnits="userSpaceOnUse" x="166" y="93" width="5" height="9">
<path d="M169.68 94.5908C170.231 96.0277 170.063 98.5676 169.319 100.199C168.516 101.802 167.333 102.085 166.691 100.613C165.966 99.1632 166.121 96.5111 167.023 94.8686C167.877 93.1779 169.07 93.0871 169.68 94.5908Z" fill="white"/>
</mask>
<g mask="url(#mask94_2679_4039)">
<path d="M170.23 93.0874H165.965V102.085H170.23V93.0874Z" fill="url(#paint94_linear_2679_4039)"/>
</g>
<mask id="mask95_2679_4039" style="mask-type:luminance" maskUnits="userSpaceOnUse" x="169" y="108" width="3" height="7">
<path d="M171.836 108.763C171.804 108.91 171.772 109.049 171.737 109.246C171.331 110.881 170.873 112.504 170.365 114.115C170.073 114.9 169.926 115.103 170.006 114.47C170.076 113.506 170.579 111.436 171.167 109.834C171.687 108.301 171.989 107.839 171.836 108.763Z" fill="white"/>
</mask>
<g mask="url(#mask95_2679_4039)">
<path d="M171.993 107.838H169.927V115.108H171.993V107.838Z" fill="url(#paint95_linear_2679_4039)"/>
</g>
<mask id="mask96_2679_4039" style="mask-type:luminance" maskUnits="userSpaceOnUse" x="165" y="123" width="2" height="4">
<path d="M165.495 126.314V126.292C165.856 125.515 166.298 124.586 166.694 123.726C166.76 123.576 166.833 123.416 166.916 123.271C166.461 124.286 165.99 125.304 165.495 126.314Z" fill="white"/>
</mask>
<g mask="url(#mask96_2679_4039)">
<path d="M166.914 123.271H165.493V126.314H166.914V123.271Z" fill="url(#paint96_linear_2679_4039)"/>
</g>
<mask id="mask97_2679_4039" style="mask-type:luminance" maskUnits="userSpaceOnUse" x="165" y="50" width="2" height="4">
<path d="M166.913 53.7461C166.831 53.5964 166.757 53.4421 166.691 53.2841C166.293 52.4321 165.854 51.5027 165.493 50.7228V50.7041C165.99 51.703 166.461 52.7205 166.913 53.7461Z" fill="white"/>
</mask>
<g mask="url(#mask97_2679_4039)">
<path d="M166.913 50.6919H165.493V53.7339H166.913V50.6919Z" fill="url(#paint97_linear_2679_4039)"/>
</g>
<mask id="mask98_2679_4039" style="mask-type:luminance" maskUnits="userSpaceOnUse" x="169" y="62" width="3" height="7">
<path d="M171.737 67.7482C171.772 67.9459 171.804 68.0901 171.836 68.229C171.989 69.1664 171.687 68.7044 171.167 67.1607C170.579 65.5582 170.076 63.4856 170.006 62.5242C169.926 61.8885 170.073 62.0942 170.365 62.8794C170.871 64.4943 171.329 66.1173 171.737 67.7482Z" fill="white"/>
</mask>
<g mask="url(#mask98_2679_4039)">
<path d="M171.993 61.8926H169.927V69.1625H171.993V61.8926Z" fill="url(#paint98_linear_2679_4039)"/>
</g>
<mask id="mask99_2679_4039" style="mask-type:luminance" maskUnits="userSpaceOnUse" x="172" y="77" width="2" height="8">
<path d="M173.595 78.4306C173.835 80.01 173.969 81.6035 173.996 83.2007C173.924 84.488 173.595 84.4159 173.26 82.9042C172.864 81.4059 172.69 79.1384 172.87 77.8297C172.977 76.6172 173.306 76.9136 173.595 78.4306Z" fill="white"/>
</mask>
<g mask="url(#mask99_2679_4039)">
<path d="M174.001 76.6196H172.69V84.4904H174.001V76.6196Z" fill="url(#paint99_linear_2679_4039)"/>
</g>
<mask id="mask100_2679_4039" style="mask-type:luminance" maskUnits="userSpaceOnUse" x="172" y="92" width="2" height="8">
<path d="M173.994 93.8093C173.967 95.4064 173.833 96.9999 173.593 98.5793C173.304 100.099 172.975 100.395 172.868 99.1802C172.689 97.8795 172.868 95.604 173.259 94.1057C173.593 92.5834 173.922 92.5166 173.994 93.8093Z" fill="white"/>
</mask>
<g mask="url(#mask100_2679_4039)">
<path d="M173.999 92.5176H172.688V100.388H173.999V92.5176Z" fill="url(#paint100_linear_2679_4039)"/>
</g>
<mask id="mask101_2679_4039" style="mask-type:luminance" maskUnits="userSpaceOnUse" x="37" y="47" width="116" height="102">
<path d="M47.1577 51.9673C47.5243 52.3866 47.8182 52.8642 48.0273 53.3801C48.3912 54.3042 49.2287 54.7796 50.2802 54.6675C52.0516 54.5206 52.0516 54.5206 53.8711 54.3496C54.4203 54.3019 54.9487 54.1169 55.4075 53.8116C55.8662 53.5063 56.2405 53.0907 56.4959 52.6029C56.8384 52.0054 57.2576 51.455 57.7428 50.9657C60.3704 48.3858 64.3492 48.0946 66.7145 50.3328C67.1581 50.7787 67.53 51.2904 67.8169 51.8498C68.2664 52.854 69.2538 53.3935 70.4632 53.3214C72.4325 53.2626 72.4325 53.2626 74.4768 53.1691C75.0575 53.1544 75.6244 52.989 76.1216 52.6893C76.6189 52.3896 77.0295 51.9659 77.313 51.4598C77.6546 50.8555 78.0858 50.3062 78.592 49.8307C81.34 47.2988 85.6105 47.2106 88.2594 49.6197C88.7461 50.0941 89.1649 50.6333 89.5036 51.2221C89.7754 51.7265 90.1823 52.1455 90.6789 52.4323C91.1756 52.719 91.7423 52.8623 92.3158 52.846C94.427 52.846 94.427 52.846 96.506 52.846C97.0844 52.863 97.6563 52.721 98.1593 52.4356C98.6623 52.1502 99.0771 51.7322 99.3583 51.2275C99.6825 50.633 100.103 50.096 100.603 49.6384C103.214 47.2347 107.527 47.3228 110.235 49.8494C110.739 50.326 111.168 50.8751 111.509 51.4785C111.798 51.9887 112.214 52.4159 112.717 52.719C113.22 53.0221 113.793 53.1909 114.38 53.2092C116.392 53.2813 116.392 53.2813 118.393 53.3668C118.931 53.41 119.47 53.2933 119.941 53.0314C120.413 52.7695 120.796 52.3741 121.042 51.8952C121.292 51.3161 121.668 50.7997 122.142 50.3835C124.47 48.1214 128.451 48.4125 131.079 50.9898C133.707 53.5671 133.966 57.5679 131.689 59.8915C129.353 62.2952 125.267 62.1083 122.608 59.4295C122.094 58.9253 121.656 58.3495 121.307 57.7202C121.032 57.207 120.628 56.7742 120.134 56.4642C119.641 56.1542 119.075 55.9777 118.492 55.9521L114.449 55.8079C113.885 55.7697 113.322 55.8983 112.83 56.1776C112.339 56.4569 111.941 56.8745 111.685 57.3783C111.392 57.9966 110.98 58.5518 110.473 59.0128C107.843 61.5741 103.455 61.5154 100.693 58.8606C100.17 58.3737 99.7315 57.8033 99.3958 57.1727C99.1178 56.6525 98.7014 56.219 98.1925 55.9198C97.6836 55.6206 97.1019 55.4673 96.5114 55.4767H92.2917C91.7026 55.4712 91.123 55.6255 90.615 55.9233C90.1069 56.2211 89.6895 56.6511 89.4073 57.1673C89.0737 57.7905 88.6439 58.3574 88.1337 58.8472C85.375 61.4993 80.9547 61.5661 78.3298 59.0075C77.8368 58.5334 77.427 57.9799 77.1177 57.3703C76.863 56.8657 76.465 56.4472 75.9735 56.1669C75.4819 55.8867 74.9185 55.7572 74.3537 55.7945L70.316 55.9388C69.7331 55.9629 69.1665 56.1382 68.672 56.4473C68.1775 56.7563 67.7722 57.1886 67.4958 57.7015C67.1571 58.3224 66.7299 58.891 66.2275 59.3894C63.5518 62.0602 59.4499 62.2739 57.1113 59.8702C56.6936 59.4063 56.3424 58.8868 56.0678 58.3264C55.8708 57.8626 55.5316 57.4729 55.099 57.2133C54.6664 56.9538 54.1625 56.8376 53.6597 56.8815C51.8536 57.0204 51.8536 57.0204 50.0581 57.1727C49.5173 57.236 49.0009 57.4334 48.5559 57.7469C48.111 58.0603 47.7518 58.4799 47.5109 58.9674C47.2005 59.5629 46.8108 60.1136 46.3523 60.6046C43.9441 63.2434 40.4657 63.5425 38.5927 61.3872C36.8454 59.2505 37.2682 55.5435 39.5586 52.9448C41.8571 50.4182 45.2445 49.9428 47.1577 51.9673ZM65.7994 72.1291C66.3151 72.641 66.7323 73.243 67.0303 73.9052C67.2746 74.4395 67.6728 74.8892 68.1741 75.1969C68.6754 75.5047 69.2571 75.6565 69.8451 75.6332C71.868 75.5797 71.868 75.5797 73.8961 75.5477C74.4972 75.5398 75.0842 75.3652 75.5917 75.0436C76.0992 74.7219 76.5071 74.2658 76.7699 73.7262C77.1167 73.0508 77.5682 72.4343 78.1077 71.8994C78.7488 71.2116 79.5222 70.6597 80.3817 70.2769C81.2411 69.894 82.1691 69.6879 83.1102 69.671C84.0512 69.654 84.986 69.8265 85.8588 70.1782C86.7315 70.5299 87.5243 71.0535 88.1899 71.7178C88.8554 72.3821 89.38 73.1734 89.7323 74.0446C90.0846 74.9157 90.2574 75.8488 90.2405 76.7881C90.2235 77.7274 90.017 78.6537 89.6334 79.5116C89.2499 80.3695 88.697 81.1414 88.0079 81.7813C87.4489 82.3406 86.8017 82.8043 86.0921 83.1541C85.5277 83.4174 85.0511 83.837 84.719 84.3631C84.3869 84.8892 84.2134 85.4996 84.2191 86.1214V90.9288C84.2138 91.5508 84.3875 92.1613 84.7195 92.6877C85.0515 93.2142 85.5279 93.6345 86.0921 93.8987C86.8017 94.2485 87.4489 94.7122 88.0079 95.2715C88.6687 95.9221 89.1941 96.6967 89.5537 97.5508C89.9133 98.4048 90.1002 99.3215 90.1034 100.248C90.1066 101.174 89.9262 102.092 89.5725 102.949C89.2189 103.805 88.6989 104.584 88.0427 105.239C87.4897 105.783 86.8517 106.234 86.1536 106.574C85.603 106.824 85.1372 107.229 84.8131 107.739C84.4891 108.249 84.3208 108.842 84.3288 109.445C84.3663 111.769 84.3663 111.769 84.3877 114.069C84.3937 114.672 84.5734 115.261 84.9055 115.765C85.2376 116.27 85.708 116.668 86.2607 116.913C86.9572 117.247 87.5973 117.688 88.1577 118.219C90.8977 120.831 90.9298 124.963 88.2728 127.436C87.2656 128.345 86.0098 128.933 84.6659 129.126C84.7569 133.255 84.7569 133.255 84.8639 137.248C86.1818 137.467 87.413 138.047 88.42 138.923C91.077 141.18 91.1358 144.662 88.6126 146.695C86.159 148.642 82.0972 148.495 79.5366 146.39C76.901 144.2 76.6575 140.744 79.0844 138.658C79.9767 137.912 81.0547 137.42 82.2043 137.235C82.0678 133.189 82.0678 133.189 81.9501 129.014C80.6986 128.713 79.5452 128.097 78.6001 127.225C75.9244 124.68 75.7665 120.575 78.3539 118.069C78.8234 117.606 79.3658 117.223 79.9593 116.934C80.4675 116.685 80.8927 116.294 81.1841 115.81C81.4755 115.325 81.6207 114.767 81.6022 114.202C81.5648 111.734 81.5648 111.734 81.5407 109.253C81.5356 108.663 81.3691 108.086 81.0593 107.584C80.7495 107.082 80.3081 106.673 79.7827 106.403C79.1727 106.071 78.6132 105.654 78.1211 105.164C75.3705 102.405 75.3143 97.9663 78.0275 95.2421C78.5039 94.7429 79.06 94.3259 79.673 94.0082C80.2031 93.7311 80.645 93.3118 80.949 92.7974C81.253 92.283 81.407 91.6941 81.3935 91.097C81.3935 88.5304 81.3935 88.5304 81.3935 85.9451C81.4055 85.3494 81.2508 84.7621 80.9469 84.2493C80.6429 83.7365 80.2018 83.3184 79.673 83.0419C79.06 82.7242 78.5039 82.3073 78.0275 81.808C77.5186 81.3047 77.094 80.7231 76.7699 80.0854C76.5116 79.5501 76.1041 79.1007 75.5963 78.7908C75.0884 78.481 74.5018 78.324 73.9069 78.3387C71.7797 78.3921 71.7797 78.3921 69.6819 78.4108C69.0988 78.4237 68.5304 78.5958 68.0384 78.9085C67.5464 79.2211 67.1496 79.6623 66.8911 80.1842C66.565 80.8133 66.1516 81.3932 65.663 81.9068C63.0327 84.6311 58.872 84.6524 56.3836 81.979C53.946 79.3803 54.053 75.0589 56.6003 72.3641C59.1476 69.6693 63.2842 69.5171 65.786 72.1291H65.7994ZM139.845 78.774C138.006 78.7072 138.006 78.7072 136.155 78.6885C135.61 78.67 135.073 78.8165 134.613 79.1087C134.154 79.401 133.794 79.8253 133.581 80.3257C133.294 80.9587 132.909 81.542 132.438 82.0537C129.939 84.6925 125.781 84.6658 123.154 81.9336C122.647 81.4112 122.223 80.815 121.896 80.1655C121.638 79.6319 121.238 79.1799 120.739 78.8598C120.239 78.5397 119.661 78.3639 119.068 78.352L114.934 78.32C114.338 78.3017 113.75 78.4575 113.242 78.7683C112.734 79.0791 112.328 79.5313 112.073 80.0693C111.746 80.7244 111.316 81.323 110.8 81.8427C110.275 82.3553 109.678 82.789 109.028 83.1301C108.486 83.399 108.031 83.8155 107.716 84.3316C107.4 84.8476 107.238 85.4422 107.246 86.0466C107.246 88.5331 107.246 88.5331 107.246 91.0142C107.237 91.6195 107.399 92.2152 107.714 92.7323C108.03 93.2494 108.485 93.6668 109.028 93.9361C109.678 94.2772 110.275 94.7109 110.8 95.2234C111.565 96.0208 112.133 96.9852 112.459 98.0402C112.785 99.0951 112.86 100.211 112.678 101.3C112.497 102.389 112.063 103.421 111.411 104.313C110.76 105.206 109.909 105.934 108.927 106.441C108.388 106.707 107.933 107.118 107.615 107.627C107.297 108.137 107.128 108.725 107.126 109.325C107.078 111.729 107.078 111.729 107.046 114.109C107.034 114.684 107.19 115.25 107.495 115.738C107.8 116.226 108.241 116.615 108.763 116.857C109.393 117.156 109.968 117.56 110.463 118.051C113.085 120.545 112.943 124.65 110.222 127.217C107.511 129.735 103.198 129.842 100.589 127.428C97.9295 124.955 97.9536 120.823 100.685 118.203C101.212 117.707 101.805 117.287 102.449 116.956C102.986 116.707 103.44 116.31 103.759 115.813C104.078 115.315 104.248 114.737 104.25 114.146C104.279 111.758 104.279 111.758 104.311 109.339C104.312 108.751 104.147 108.175 103.835 107.677C103.522 107.179 103.075 106.779 102.545 106.524C101.892 106.191 101.294 105.762 100.771 105.25C100.115 104.593 99.5957 103.814 99.2423 102.957C98.889 102.1 98.7087 101.182 98.712 100.255C98.7152 99.3277 98.9018 98.4106 99.2612 97.5559C99.6205 96.7012 100.145 95.9258 100.806 95.2741C101.332 94.7464 101.938 94.304 102.601 93.9628C103.149 93.6932 103.609 93.274 103.928 92.754C104.246 92.234 104.411 91.6345 104.402 91.0249C104.402 88.5384 104.402 88.5384 104.402 86.0519C104.409 85.4427 104.244 84.8438 103.926 84.3241C103.607 83.8044 103.148 83.385 102.601 83.114C101.938 82.7749 101.332 82.3342 100.806 81.808C100.095 81.0914 99.5472 80.2297 99.2011 79.282C98.8549 78.3343 98.7183 77.323 98.8006 76.3177C98.8829 75.3123 99.1822 74.3366 99.6779 73.4576C100.174 72.5785 100.854 71.817 101.672 71.2251C102.491 70.6332 103.428 70.2251 104.419 70.0288C105.41 69.8324 106.432 69.8524 107.415 70.0875C108.398 70.3226 109.318 70.7671 110.112 71.3906C110.907 72.014 111.556 72.8017 112.017 73.6995C112.284 74.2387 112.696 74.6932 113.207 75.0125C113.718 75.3317 114.307 75.5032 114.91 75.5076C116.975 75.521 116.975 75.521 119.033 75.553C119.615 75.5797 120.192 75.4303 120.687 75.1244C121.183 74.8184 121.574 74.3702 121.81 73.8384C122.123 73.2189 122.527 72.6499 123.009 72.1505C125.54 69.5651 129.65 69.6773 132.248 72.4336C132.73 72.9373 133.134 73.5087 133.45 74.1295C134.004 75.2646 134.983 75.9163 136.093 75.9376C137.95 75.991 137.95 75.991 139.78 76.0498C140.3 76.0802 140.815 75.9418 141.25 75.6553C141.684 75.3689 142.013 74.9497 142.189 74.4607C142.44 73.8695 142.779 73.3194 143.195 72.8288C145.335 70.4411 148.843 70.6521 151.059 73.2455C153.229 75.8976 153.37 79.9411 151.38 82.3689C149.309 84.9168 145.761 84.8447 143.47 82.238C143.027 81.716 142.652 81.1398 142.354 80.5234C141.846 79.4203 140.915 78.782 139.845 78.774Z" fill="white"/>
</mask>
<g mask="url(#mask101_2679_4039)">
<path d="M153.363 47.2085H36.8379V148.65H153.363V47.2085Z" fill="url(#paint101_linear_2679_4039)"/>
</g>
</g>
<defs>
<linearGradient id="paint0_linear_2679_4039" x1="113.164" y1="-0.590171" x2="-8.04158" y2="126.795" gradientUnits="userSpaceOnUse">
<stop stop-color="#FF00FF"/>
<stop offset="1" stop-color="#0000FF"/>
</linearGradient>
<linearGradient id="paint1_linear_2679_4039" x1="133.018" y1="-4.35441" x2="-0.573622" y2="137.462" gradientUnits="userSpaceOnUse">
<stop stop-color="#FF00FF"/>
<stop offset="1" stop-color="#0000FF"/>
</linearGradient>
<linearGradient id="paint2_linear_2679_4039" x1="96.8344" y1="-38.8325" x2="-36.9952" y2="103.236" gradientUnits="userSpaceOnUse">
<stop stop-color="#FF00FF"/>
<stop offset="1" stop-color="#0000FF"/>
</linearGradient>
<linearGradient id="paint3_linear_2679_4039" x1="92.545" y1="-25.168" x2="-28.6952" y2="102.324" gradientUnits="userSpaceOnUse">
<stop stop-color="#FF00FF"/>
<stop offset="1" stop-color="#0000FF"/>
</linearGradient>
<linearGradient id="paint4_linear_2679_4039" x1="100.198" y1="-18.3005" x2="-22.8125" y2="108.052" gradientUnits="userSpaceOnUse">
<stop stop-color="#FF00FF"/>
<stop offset="1" stop-color="#0000FF"/>
</linearGradient>
<linearGradient id="paint5_linear_2679_4039" x1="107.334" y1="-9.60322" x2="-15.6443" y2="116.714" gradientUnits="userSpaceOnUse">
<stop stop-color="#FF00FF"/>
<stop offset="1" stop-color="#0000FF"/>
</linearGradient>
<linearGradient id="paint6_linear_2679_4039" x1="114.678" y1="5.8297" x2="-3.30543" y2="130.797" gradientUnits="userSpaceOnUse">
<stop stop-color="#FF00FF"/>
<stop offset="1" stop-color="#0000FF"/>
</linearGradient>
<linearGradient id="paint7_linear_2679_4039" x1="131.316" y1="15.2723" x2="6.20949" y2="139.933" gradientUnits="userSpaceOnUse">
<stop stop-color="#FF00FF"/>
<stop offset="1" stop-color="#0000FF"/>
</linearGradient>
<linearGradient id="paint8_linear_2679_4039" x1="145.037" y1="15.3288" x2="14.0493" y2="150.216" gradientUnits="userSpaceOnUse">
<stop stop-color="#FF00FF"/>
<stop offset="1" stop-color="#0000FF"/>
</linearGradient>
<linearGradient id="paint9_linear_2679_4039" x1="94.2676" y1="-39.4701" x2="-36.7758" y2="95.5369" gradientUnits="userSpaceOnUse">
<stop stop-color="#FF00FF"/>
<stop offset="1" stop-color="#0000FF"/>
</linearGradient>
<linearGradient id="paint10_linear_2679_4039" x1="94.6588" y1="-31.8633" x2="-30.5035" y2="92.8531" gradientUnits="userSpaceOnUse">
<stop stop-color="#FF00FF"/>
<stop offset="1" stop-color="#0000FF"/>
</linearGradient>
<linearGradient id="paint11_linear_2679_4039" x1="91.2516" y1="-22.663" x2="-26.7582" y2="102.4" gradientUnits="userSpaceOnUse">
<stop stop-color="#FF00FF"/>
<stop offset="1" stop-color="#0000FF"/>
</linearGradient>
<linearGradient id="paint12_linear_2679_4039" x1="97.3143" y1="-15.519" x2="-21.1408" y2="112.018" gradientUnits="userSpaceOnUse">
<stop stop-color="#FF00FF"/>
<stop offset="1" stop-color="#0000FF"/>
</linearGradient>
<linearGradient id="paint13_linear_2679_4039" x1="105.617" y1="-6.07013" x2="-12.8888" y2="121.523" gradientUnits="userSpaceOnUse">
<stop stop-color="#FF00FF"/>
<stop offset="1" stop-color="#0000FF"/>
</linearGradient>
<linearGradient id="paint14_linear_2679_4039" x1="121.638" y1="11.6088" x2="4.03536" y2="137.275" gradientUnits="userSpaceOnUse">
<stop stop-color="#FF00FF"/>
<stop offset="1" stop-color="#0000FF"/>
</linearGradient>
<linearGradient id="paint15_linear_2679_4039" x1="131.188" y1="23.0221" x2="13.6941" y2="147.705" gradientUnits="userSpaceOnUse">
<stop stop-color="#FF00FF"/>
<stop offset="1" stop-color="#0000FF"/>
</linearGradient>
<linearGradient id="paint16_linear_2679_4039" x1="142.458" y1="29.7925" x2="22.344" y2="157.304" gradientUnits="userSpaceOnUse">
<stop stop-color="#FF00FF"/>
<stop offset="1" stop-color="#0000FF"/>
</linearGradient>
<linearGradient id="paint17_linear_2679_4039" x1="156.436" y1="28.3655" x2="29.7491" y2="165.161" gradientUnits="userSpaceOnUse">
<stop stop-color="#FF00FF"/>
<stop offset="1" stop-color="#0000FF"/>
</linearGradient>
<linearGradient id="paint18_linear_2679_4039" x1="90.5721" y1="-37.4735" x2="-36.1259" y2="99.3383" gradientUnits="userSpaceOnUse">
<stop stop-color="#FF00FF"/>
<stop offset="1" stop-color="#0000FF"/>
</linearGradient>
<linearGradient id="paint19_linear_2679_4039" x1="88.8231" y1="-33.0201" x2="-31.2907" y2="94.4883" gradientUnits="userSpaceOnUse">
<stop stop-color="#FF00FF"/>
<stop offset="1" stop-color="#0000FF"/>
</linearGradient>
<linearGradient id="paint20_linear_2679_4039" x1="90.3604" y1="-26.786" x2="-27.1125" y2="97.8064" gradientUnits="userSpaceOnUse">
<stop stop-color="#FF00FF"/>
<stop offset="1" stop-color="#0000FF"/>
</linearGradient>
<linearGradient id="paint21_linear_2679_4039" x1="95.4638" y1="-19.5861" x2="-22.1277" y2="106.003" gradientUnits="userSpaceOnUse">
<stop stop-color="#FF00FF"/>
<stop offset="1" stop-color="#0000FF"/>
</linearGradient>
<linearGradient id="paint22_linear_2679_4039" x1="104.511" y1="-11.7407" x2="-15.2786" y2="116.122" gradientUnits="userSpaceOnUse">
<stop stop-color="#FF00FF"/>
<stop offset="1" stop-color="#0000FF"/>
</linearGradient>
<linearGradient id="paint23_linear_2679_4039" x1="113.702" y1="-1.17202" x2="-6.08752" y2="126.691" gradientUnits="userSpaceOnUse">
<stop stop-color="#FF00FF"/>
<stop offset="1" stop-color="#0000FF"/>
</linearGradient>
<linearGradient id="paint24_linear_2679_4039" x1="132.733" y1="19.276" x2="13.9269" y2="145.137" gradientUnits="userSpaceOnUse">
<stop stop-color="#FF00FF"/>
<stop offset="1" stop-color="#0000FF"/>
</linearGradient>
<linearGradient id="paint25_linear_2679_4039" x1="141.235" y1="31.2671" x2="23.8215" y2="156.006" gradientUnits="userSpaceOnUse">
<stop stop-color="#FF00FF"/>
<stop offset="1" stop-color="#0000FF"/>
</linearGradient>
<linearGradient id="paint26_linear_2679_4039" x1="149.371" y1="40.6862" x2="32.559" y2="165.427" gradientUnits="userSpaceOnUse">
<stop stop-color="#FF00FF"/>
<stop offset="1" stop-color="#0000FF"/>
</linearGradient>
<linearGradient id="paint27_linear_2679_4039" x1="157.921" y1="38.101" x2="40.403" y2="172.344" gradientUnits="userSpaceOnUse">
<stop stop-color="#FF00FF"/>
<stop offset="1" stop-color="#0000FF"/>
</linearGradient>
<linearGradient id="paint28_linear_2679_4039" x1="88.2841" y1="-31.0794" x2="-29.2211" y2="103.017" gradientUnits="userSpaceOnUse">
<stop stop-color="#FF00FF"/>
<stop offset="1" stop-color="#0000FF"/>
</linearGradient>
<linearGradient id="paint29_linear_2679_4039" x1="92.4595" y1="-28.3334" x2="-24.3523" y2="96.4072" gradientUnits="userSpaceOnUse">
<stop stop-color="#FF00FF"/>
<stop offset="1" stop-color="#0000FF"/>
</linearGradient>
<linearGradient id="paint30_linear_2679_4039" x1="97.083" y1="-22.5193" x2="-20.3307" y2="102.22" gradientUnits="userSpaceOnUse">
<stop stop-color="#FF00FF"/>
<stop offset="1" stop-color="#0000FF"/>
</linearGradient>
<linearGradient id="paint31_linear_2679_4039" x1="114.149" y1="-5.56154" x2="-6.64575" y2="122.837" gradientUnits="userSpaceOnUse">
<stop stop-color="#FF00FF"/>
<stop offset="1" stop-color="#0000FF"/>
</linearGradient>
<linearGradient id="paint32_linear_2679_4039" x1="124.037" y1="5.82149" x2="3.24251" y2="134.148" gradientUnits="userSpaceOnUse">
<stop stop-color="#FF00FF"/>
<stop offset="1" stop-color="#0000FF"/>
</linearGradient>
<linearGradient id="paint33_linear_2679_4039" x1="145.425" y1="27.4816" x2="25.3193" y2="154.848" gradientUnits="userSpaceOnUse">
<stop stop-color="#FF00FF"/>
<stop offset="1" stop-color="#0000FF"/>
</linearGradient>
<linearGradient id="paint34_linear_2679_4039" x1="154.256" y1="39.5553" x2="35.1879" y2="165.539" gradientUnits="userSpaceOnUse">
<stop stop-color="#FF00FF"/>
<stop offset="1" stop-color="#0000FF"/>
</linearGradient>
<linearGradient id="paint35_linear_2679_4039" x1="161.837" y1="49.6576" x2="43.4852" y2="174.658" gradientUnits="userSpaceOnUse">
<stop stop-color="#FF00FF"/>
<stop offset="1" stop-color="#0000FF"/>
</linearGradient>
<linearGradient id="paint36_linear_2679_4039" x1="167.892" y1="54.8381" x2="50.1177" y2="181.22" gradientUnits="userSpaceOnUse">
<stop stop-color="#FF00FF"/>
<stop offset="1" stop-color="#0000FF"/>
</linearGradient>
<linearGradient id="paint37_linear_2679_4039" x1="185.315" y1="45.7305" x2="52.1962" y2="187.009" gradientUnits="userSpaceOnUse">
<stop stop-color="#FF00FF"/>
<stop offset="1" stop-color="#0000FF"/>
</linearGradient>
<linearGradient id="paint38_linear_2679_4039" x1="102.927" y1="-32.6166" x2="-30.2056" y2="108.678" gradientUnits="userSpaceOnUse">
<stop stop-color="#FF00FF"/>
<stop offset="1" stop-color="#0000FF"/>
</linearGradient>
<linearGradient id="paint39_linear_2679_4039" x1="98.1139" y1="-27.3784" x2="-19.6582" y2="99.0011" gradientUnits="userSpaceOnUse">
<stop stop-color="#FF00FF"/>
<stop offset="1" stop-color="#0000FF"/>
</linearGradient>
<linearGradient id="paint40_linear_2679_4039" x1="101.747" y1="-23.5524" x2="-16.6291" y2="101.405" gradientUnits="userSpaceOnUse">
<stop stop-color="#FF00FF"/>
<stop offset="1" stop-color="#0000FF"/>
</linearGradient>
<linearGradient id="paint41_linear_2679_4039" x1="107.355" y1="-16.6677" x2="-11.6963" y2="109.303" gradientUnits="userSpaceOnUse">
<stop stop-color="#FF00FF"/>
<stop offset="1" stop-color="#0000FF"/>
</linearGradient>
<linearGradient id="paint42_linear_2679_4039" x1="135.862" y1="14.5392" x2="14.6077" y2="143.396" gradientUnits="userSpaceOnUse">
<stop stop-color="#FF00FF"/>
<stop offset="1" stop-color="#0000FF"/>
</linearGradient>
<linearGradient id="paint43_linear_2679_4039" x1="175.023" y1="57.0581" x2="54.7716" y2="184.233" gradientUnits="userSpaceOnUse">
<stop stop-color="#FF00FF"/>
<stop offset="1" stop-color="#0000FF"/>
</linearGradient>
<linearGradient id="paint44_linear_2679_4039" x1="179.654" y1="64.717" x2="59.938" y2="190.272" gradientUnits="userSpaceOnUse">
<stop stop-color="#FF00FF"/>
<stop offset="1" stop-color="#0000FF"/>
</linearGradient>
<linearGradient id="paint45_linear_2679_4039" x1="183.398" y1="62.7666" x2="63.7325" y2="192.667" gradientUnits="userSpaceOnUse">
<stop stop-color="#FF00FF"/>
<stop offset="1" stop-color="#0000FF"/>
</linearGradient>
<linearGradient id="paint46_linear_2679_4039" x1="105.826" y1="-23.3359" x2="-13.854" y2="106.105" gradientUnits="userSpaceOnUse">
<stop stop-color="#FF00FF"/>
<stop offset="1" stop-color="#0000FF"/>
</linearGradient>
<linearGradient id="paint47_linear_2679_4039" x1="108.344" y1="-21.8274" x2="-11.3617" y2="103.715" gradientUnits="userSpaceOnUse">
<stop stop-color="#FF00FF"/>
<stop offset="1" stop-color="#0000FF"/>
</linearGradient>
<linearGradient id="paint48_linear_2679_4039" x1="112.274" y1="-16.8066" x2="-7.94211" y2="110.4" gradientUnits="userSpaceOnUse">
<stop stop-color="#FF00FF"/>
<stop offset="1" stop-color="#0000FF"/>
</linearGradient>
<linearGradient id="paint49_linear_2679_4039" x1="118.839" y1="-8.93612" x2="-1.53049" y2="119.032" gradientUnits="userSpaceOnUse">
<stop stop-color="#FF00FF"/>
<stop offset="1" stop-color="#0000FF"/>
</linearGradient>
<linearGradient id="paint50_linear_2679_4039" x1="180.084" y1="57.2251" x2="59.0879" y2="185.28" gradientUnits="userSpaceOnUse">
<stop stop-color="#FF00FF"/>
<stop offset="1" stop-color="#0000FF"/>
</linearGradient>
<linearGradient id="paint51_linear_2679_4039" x1="186.126" y1="65.9889" x2="65.928" y2="192.974" gradientUnits="userSpaceOnUse">
<stop stop-color="#FF00FF"/>
<stop offset="1" stop-color="#0000FF"/>
</linearGradient>
<linearGradient id="paint52_linear_2679_4039" x1="189.894" y1="72.7663" x2="69.581" y2="198.31" gradientUnits="userSpaceOnUse">
<stop stop-color="#FF00FF"/>
<stop offset="1" stop-color="#0000FF"/>
</linearGradient>
<linearGradient id="paint53_linear_2679_4039" x1="192.005" y1="70.7812" x2="72.1772" y2="199.622" gradientUnits="userSpaceOnUse">
<stop stop-color="#FF00FF"/>
<stop offset="1" stop-color="#0000FF"/>
</linearGradient>
<linearGradient id="paint54_linear_2679_4039" x1="114.666" y1="-16.5805" x2="-5.21091" y2="113.125" gradientUnits="userSpaceOnUse">
<stop stop-color="#FF00FF"/>
<stop offset="1" stop-color="#0000FF"/>
</linearGradient>
<linearGradient id="paint55_linear_2679_4039" x1="118.575" y1="-14.1535" x2="-1.7483" y2="111.467" gradientUnits="userSpaceOnUse">
<stop stop-color="#FF00FF"/>
<stop offset="1" stop-color="#0000FF"/>
</linearGradient>
<linearGradient id="paint56_linear_2679_4039" x1="123.49" y1="-8.03858" x2="3.3189" y2="118.987" gradientUnits="userSpaceOnUse">
<stop stop-color="#FF00FF"/>
<stop offset="1" stop-color="#0000FF"/>
</linearGradient>
<linearGradient id="paint57_linear_2679_4039" x1="131.222" y1="0.479235" x2="10.264" y2="128.494" gradientUnits="userSpaceOnUse">
<stop stop-color="#FF00FF"/>
<stop offset="1" stop-color="#0000FF"/>
</linearGradient>
<linearGradient id="paint58_linear_2679_4039" x1="182.788" y1="56.5232" x2="62.915" y2="183.788" gradientUnits="userSpaceOnUse">
<stop stop-color="#FF00FF"/>
<stop offset="1" stop-color="#0000FF"/>
</linearGradient>
<linearGradient id="paint59_linear_2679_4039" x1="189.965" y1="66.8959" x2="70.8464" y2="192.936" gradientUnits="userSpaceOnUse">
<stop stop-color="#FF00FF"/>
<stop offset="1" stop-color="#0000FF"/>
</linearGradient>
<linearGradient id="paint60_linear_2679_4039" x1="194.533" y1="75.0865" x2="76.6743" y2="199.589" gradientUnits="userSpaceOnUse">
<stop stop-color="#FF00FF"/>
<stop offset="1" stop-color="#0000FF"/>
</linearGradient>
<linearGradient id="paint61_linear_2679_4039" x1="197.495" y1="77.9065" x2="80.0184" y2="203.519" gradientUnits="userSpaceOnUse">
<stop stop-color="#FF00FF"/>
<stop offset="1" stop-color="#0000FF"/>
</linearGradient>
<linearGradient id="paint62_linear_2679_4039" x1="208.215" y1="68.0901" x2="75.4373" y2="208.69" gradientUnits="userSpaceOnUse">
<stop stop-color="#FF00FF"/>
<stop offset="1" stop-color="#0000FF"/>
</linearGradient>
<linearGradient id="paint63_linear_2679_4039" x1="126.24" y1="-10.8272" x2="-6.48154" y2="129.714" gradientUnits="userSpaceOnUse">
<stop stop-color="#FF00FF"/>
<stop offset="1" stop-color="#0000FF"/>
</linearGradient>
<linearGradient id="paint64_linear_2679_4039" x1="128.19" y1="-5.01267" x2="10.7237" y2="120.52" gradientUnits="userSpaceOnUse">
<stop stop-color="#FF00FF"/>
<stop offset="1" stop-color="#0000FF"/>
</linearGradient>
<linearGradient id="paint65_linear_2679_4039" x1="134.682" y1="1.66624" x2="16.8242" y2="126.238" gradientUnits="userSpaceOnUse">
<stop stop-color="#FF00FF"/>
<stop offset="1" stop-color="#0000FF"/>
</linearGradient>
<linearGradient id="paint66_linear_2679_4039" x1="143.062" y1="10.7099" x2="23.9673" y2="136.723" gradientUnits="userSpaceOnUse">
<stop stop-color="#FF00FF"/>
<stop offset="1" stop-color="#0000FF"/>
</linearGradient>
<linearGradient id="paint67_linear_2679_4039" x1="173.979" y1="44.8101" x2="52.7438" y2="173.376" gradientUnits="userSpaceOnUse">
<stop stop-color="#FF00FF"/>
<stop offset="1" stop-color="#0000FF"/>
</linearGradient>
<linearGradient id="paint68_linear_2679_4039" x1="192.629" y1="64.4862" x2="73.9551" y2="190.822" gradientUnits="userSpaceOnUse">
<stop stop-color="#FF00FF"/>
<stop offset="1" stop-color="#0000FF"/>
</linearGradient>
<linearGradient id="paint69_linear_2679_4039" x1="198.65" y1="73.8695" x2="81.0656" y2="198.777" gradientUnits="userSpaceOnUse">
<stop stop-color="#FF00FF"/>
<stop offset="1" stop-color="#0000FF"/>
</linearGradient>
<linearGradient id="paint70_linear_2679_4039" x1="202.436" y1="80.5307" x2="85.1365" y2="204.749" gradientUnits="userSpaceOnUse">
<stop stop-color="#FF00FF"/>
<stop offset="1" stop-color="#0000FF"/>
</linearGradient>
<linearGradient id="paint71_linear_2679_4039" x1="207.912" y1="71.586" x2="90.4894" y2="207.028" gradientUnits="userSpaceOnUse">
<stop stop-color="#FF00FF"/>
<stop offset="1" stop-color="#0000FF"/>
</linearGradient>
<linearGradient id="paint72_linear_2679_4039" x1="137.74" y1="3.84032" x2="20.3334" y2="139.261" gradientUnits="userSpaceOnUse">
<stop stop-color="#FF00FF"/>
<stop offset="1" stop-color="#0000FF"/>
</linearGradient>
<linearGradient id="paint73_linear_2679_4039" x1="145.799" y1="10.8134" x2="28.556" y2="135.037" gradientUnits="userSpaceOnUse">
<stop stop-color="#FF00FF"/>
<stop offset="1" stop-color="#0000FF"/>
</linearGradient>
<linearGradient id="paint74_linear_2679_4039" x1="154.437" y1="20.2018" x2="36.8306" y2="145.131" gradientUnits="userSpaceOnUse">
<stop stop-color="#FF00FF"/>
<stop offset="1" stop-color="#0000FF"/>
</linearGradient>
<linearGradient id="paint75_linear_2679_4039" x1="164.348" y1="30.9414" x2="45.6449" y2="157.309" gradientUnits="userSpaceOnUse">
<stop stop-color="#FF00FF"/>
<stop offset="1" stop-color="#0000FF"/>
</linearGradient>
<linearGradient id="paint76_linear_2679_4039" x1="184.788" y1="53.4245" x2="64.1672" y2="181.578" gradientUnits="userSpaceOnUse">
<stop stop-color="#FF00FF"/>
<stop offset="1" stop-color="#0000FF"/>
</linearGradient>
<linearGradient id="paint77_linear_2679_4039" x1="200.128" y1="70.4873" x2="82.5138" y2="195.628" gradientUnits="userSpaceOnUse">
<stop stop-color="#FF00FF"/>
<stop offset="1" stop-color="#0000FF"/>
</linearGradient>
<linearGradient id="paint78_linear_2679_4039" x1="205.154" y1="78.6454" x2="87.8998" y2="202.882" gradientUnits="userSpaceOnUse">
<stop stop-color="#FF00FF"/>
<stop offset="1" stop-color="#0000FF"/>
</linearGradient>
<linearGradient id="paint79_linear_2679_4039" x1="209.492" y1="81.4056" x2="89.9934" y2="208.908" gradientUnits="userSpaceOnUse">
<stop stop-color="#FF00FF"/>
<stop offset="1" stop-color="#0000FF"/>
</linearGradient>
<linearGradient id="paint80_linear_2679_4039" x1="214.417" y1="76.7986" x2="87.7005" y2="213.629" gradientUnits="userSpaceOnUse">
<stop stop-color="#FF00FF"/>
<stop offset="1" stop-color="#0000FF"/>
</linearGradient>
<linearGradient id="paint81_linear_2679_4039" x1="148.587" y1="11.0372" x2="21.9211" y2="147.745" gradientUnits="userSpaceOnUse">
<stop stop-color="#FF00FF"/>
<stop offset="1" stop-color="#0000FF"/>
</linearGradient>
<linearGradient id="paint82_linear_2679_4039" x1="155.844" y1="18.9646" x2="36.3452" y2="146.4" gradientUnits="userSpaceOnUse">
<stop stop-color="#FF00FF"/>
<stop offset="1" stop-color="#0000FF"/>
</linearGradient>
<linearGradient id="paint83_linear_2679_4039" x1="164.488" y1="28.6372" x2="47.2363" y2="152.874" gradientUnits="userSpaceOnUse">
<stop stop-color="#FF00FF"/>
<stop offset="1" stop-color="#0000FF"/>
</linearGradient>
<linearGradient id="paint84_linear_2679_4039" x1="174.162" y1="39.1372" x2="56.5486" y2="164.277" gradientUnits="userSpaceOnUse">
<stop stop-color="#FF00FF"/>
<stop offset="1" stop-color="#0000FF"/>
</linearGradient>
<linearGradient id="paint85_linear_2679_4039" x1="184.275" y1="49.7403" x2="64.3567" y2="177.256" gradientUnits="userSpaceOnUse">
<stop stop-color="#FF00FF"/>
<stop offset="1" stop-color="#0000FF"/>
</linearGradient>
<linearGradient id="paint86_linear_2679_4039" x1="193.322" y1="60.2799" x2="73.4059" y2="187.796" gradientUnits="userSpaceOnUse">
<stop stop-color="#FF00FF"/>
<stop offset="1" stop-color="#0000FF"/>
</linearGradient>
<linearGradient id="paint87_linear_2679_4039" x1="205.017" y1="73.7049" x2="87.0739" y2="198.768" gradientUnits="userSpaceOnUse">
<stop stop-color="#FF00FF"/>
<stop offset="1" stop-color="#0000FF"/>
</linearGradient>
<linearGradient id="paint88_linear_2679_4039" x1="208.79" y1="83.3363" x2="83.5635" y2="208.05" gradientUnits="userSpaceOnUse">
<stop stop-color="#FF00FF"/>
<stop offset="1" stop-color="#0000FF"/>
</linearGradient>
<linearGradient id="paint89_linear_2679_4039" x1="215.468" y1="80.1733" x2="83.5914" y2="216.085" gradientUnits="userSpaceOnUse">
<stop stop-color="#FF00FF"/>
<stop offset="1" stop-color="#0000FF"/>
</linearGradient>
<linearGradient id="paint90_linear_2679_4039" x1="164.399" y1="25.8991" x2="32.6456" y2="161.752" gradientUnits="userSpaceOnUse">
<stop stop-color="#FF00FF"/>
<stop offset="1" stop-color="#0000FF"/>
</linearGradient>
<linearGradient id="paint91_linear_2679_4039" x1="172.049" y1="36.3445" x2="46.7259" y2="161.157" gradientUnits="userSpaceOnUse">
<stop stop-color="#FF00FF"/>
<stop offset="1" stop-color="#0000FF"/>
</linearGradient>
<linearGradient id="paint92_linear_2679_4039" x1="181.582" y1="45.393" x2="63.6204" y2="170.408" gradientUnits="userSpaceOnUse">
<stop stop-color="#FF00FF"/>
<stop offset="1" stop-color="#0000FF"/>
</linearGradient>
<linearGradient id="paint93_linear_2679_4039" x1="191.001" y1="54.931" x2="72.6626" y2="181.88" gradientUnits="userSpaceOnUse">
<stop stop-color="#FF00FF"/>
<stop offset="1" stop-color="#0000FF"/>
</linearGradient>
<linearGradient id="paint94_linear_2679_4039" x1="199.136" y1="64.4298" x2="80.8085" y2="191.299" gradientUnits="userSpaceOnUse">
<stop stop-color="#FF00FF"/>
<stop offset="1" stop-color="#0000FF"/>
</linearGradient>
<linearGradient id="paint95_linear_2679_4039" x1="207" y1="73.9108" x2="84.53" y2="202.02" gradientUnits="userSpaceOnUse">
<stop stop-color="#FF00FF"/>
<stop offset="1" stop-color="#0000FF"/>
</linearGradient>
<linearGradient id="paint96_linear_2679_4039" x1="215.336" y1="72.8257" x2="81.483" y2="214.918" gradientUnits="userSpaceOnUse">
<stop stop-color="#FF00FF"/>
<stop offset="1" stop-color="#0000FF"/>
</linearGradient>
<linearGradient id="paint97_linear_2679_4039" x1="179.013" y1="38.6627" x2="45.1569" y2="180.76" gradientUnits="userSpaceOnUse">
<stop stop-color="#FF00FF"/>
<stop offset="1" stop-color="#0000FF"/>
</linearGradient>
<linearGradient id="paint98_linear_2679_4039" x1="186.33" y1="49.5108" x2="63.9213" y2="177.556" gradientUnits="userSpaceOnUse">
<stop stop-color="#FF00FF"/>
<stop offset="1" stop-color="#0000FF"/>
</linearGradient>
<linearGradient id="paint99_linear_2679_4039" x1="194.09" y1="59.1527" x2="71.6901" y2="185.908" gradientUnits="userSpaceOnUse">
<stop stop-color="#FF00FF"/>
<stop offset="1" stop-color="#0000FF"/>
</linearGradient>
<linearGradient id="paint100_linear_2679_4039" x1="201.26" y1="67.6205" x2="78.9376" y2="194.431" gradientUnits="userSpaceOnUse">
<stop stop-color="#FF00FF"/>
<stop offset="1" stop-color="#0000FF"/>
</linearGradient>
<linearGradient id="paint101_linear_2679_4039" x1="166.241" y1="22.8616" x2="33.9093" y2="163.017" gradientUnits="userSpaceOnUse">
<stop stop-color="#FF00FF"/>
<stop offset="1" stop-color="#0000FF"/>
</linearGradient>
<clipPath id="clip0_2679_4039">
<rect width="171" height="171" fill="white" transform="translate(3 3)"/>
</clipPath>
</defs>
</svg>
